G04 (created by PCBNEW (2013-may-18)-stable) date Сб 10 янв 2015 17:31:14*
%MOIN*%
G04 Gerber Fmt 3.4, Leading zero omitted, Abs format*
%FSLAX34Y34*%
G01*
G70*
G90*
G04 APERTURE LIST*
%ADD10C,0.00590551*%
%ADD11C,0.00787402*%
%ADD12C,0.005*%
%ADD13C,0.012*%
%ADD14C,0.0059*%
%ADD15C,0.0079*%
%ADD16C,0.0039*%
%ADD17C,0.015*%
%ADD18C,0.008*%
%ADD19C,0.00985*%
%ADD20C,0.0043*%
G04 APERTURE END LIST*
G54D10*
G54D11*
X9015Y-5118D02*
X39Y-5118D01*
X9015Y-5059D02*
X9015Y-5118D01*
X18799Y-5059D02*
X18799Y-5118D01*
X18799Y-5118D02*
X9822Y-5118D01*
X39Y-5748D02*
X39Y-10748D01*
X39Y-5728D02*
X9015Y-5728D01*
X9015Y-5728D02*
X9015Y-10728D01*
X9015Y-10728D02*
X9015Y-10787D01*
X9015Y-10787D02*
X39Y-10787D01*
X18799Y-10787D02*
X9822Y-10787D01*
X18799Y-10728D02*
X18799Y-10787D01*
X18799Y-5728D02*
X18799Y-10728D01*
X9822Y-5728D02*
X18799Y-5728D01*
X9822Y-5748D02*
X9822Y-10748D01*
X9822Y-78D02*
X9822Y-5078D01*
X9822Y-59D02*
X18799Y-59D01*
X18799Y-59D02*
X18799Y-5059D01*
X9015Y-59D02*
X9015Y-5059D01*
X39Y-59D02*
X9015Y-59D01*
X39Y-78D02*
X39Y-5078D01*
G54D12*
X7101Y-7586D02*
X7101Y-9146D01*
X7101Y-9146D02*
X9001Y-9146D01*
X9001Y-9146D02*
X9001Y-7586D01*
X9001Y-7586D02*
X7101Y-7586D01*
X7301Y-7586D02*
X7301Y-7156D01*
X7801Y-7586D02*
X7801Y-7156D01*
X8301Y-7586D02*
X8301Y-7156D01*
X8801Y-7156D02*
X8801Y-7586D01*
X8801Y-9146D02*
X8801Y-9576D01*
X8301Y-9576D02*
X8301Y-9146D01*
X7801Y-9576D02*
X7801Y-9146D01*
X7301Y-9576D02*
X7301Y-9146D01*
X7577Y-8856D02*
G75*
G03X7577Y-8856I-186J0D01*
G74*
G01*
G54D13*
X8900Y-6718D02*
X6100Y-6718D01*
X6100Y-6718D02*
X6100Y-5918D01*
X6100Y-5918D02*
X8900Y-5918D01*
X8900Y-5918D02*
X8900Y-6718D01*
X8900Y-6518D02*
X8700Y-6718D01*
G54D14*
X4350Y-7184D02*
X4350Y-9704D01*
X4350Y-9704D02*
X6870Y-9704D01*
X6870Y-9704D02*
X6870Y-7578D01*
X6870Y-7578D02*
X6476Y-7184D01*
X6476Y-7184D02*
X4350Y-7184D01*
G54D15*
X6594Y-7657D02*
X6594Y-7460D01*
X6594Y-7460D02*
X6397Y-7460D01*
X6397Y-9428D02*
X6594Y-9428D01*
X6594Y-9428D02*
X6594Y-9231D01*
X4626Y-9231D02*
X4626Y-9428D01*
X4626Y-9428D02*
X4823Y-9428D01*
X4823Y-7460D02*
X4626Y-7460D01*
X4626Y-7460D02*
X4626Y-7657D01*
G54D16*
X4675Y-10733D02*
G75*
G03X4675Y-10733I-50J0D01*
G74*
G01*
X5075Y-10733D02*
X4675Y-10733D01*
X4675Y-10733D02*
X4675Y-10133D01*
X4675Y-10133D02*
X5075Y-10133D01*
X5475Y-10133D02*
X5875Y-10133D01*
X5875Y-10133D02*
X5875Y-10733D01*
X5875Y-10733D02*
X5475Y-10733D01*
G54D12*
X8381Y-10725D02*
X8381Y-9825D01*
X8381Y-9825D02*
X7731Y-9825D01*
X7031Y-10725D02*
X6381Y-10725D01*
X6381Y-10725D02*
X6381Y-9825D01*
X6381Y-9825D02*
X7031Y-9825D01*
X7731Y-10725D02*
X8381Y-10725D01*
G54D17*
X479Y-6704D02*
X479Y-9736D01*
X85Y-6704D02*
X85Y-9736D01*
X85Y-9736D02*
X3707Y-9736D01*
X3707Y-9736D02*
X3707Y-6704D01*
X3707Y-6704D02*
X85Y-6704D01*
X10262Y-6704D02*
X10262Y-9736D01*
X9868Y-6704D02*
X9868Y-9736D01*
X9868Y-9736D02*
X13490Y-9736D01*
X13490Y-9736D02*
X13490Y-6704D01*
X13490Y-6704D02*
X9868Y-6704D01*
G54D12*
X18165Y-10725D02*
X18165Y-9825D01*
X18165Y-9825D02*
X17515Y-9825D01*
X16815Y-10725D02*
X16165Y-10725D01*
X16165Y-10725D02*
X16165Y-9825D01*
X16165Y-9825D02*
X16815Y-9825D01*
X17515Y-10725D02*
X18165Y-10725D01*
G54D16*
X14459Y-10733D02*
G75*
G03X14459Y-10733I-50J0D01*
G74*
G01*
X14859Y-10733D02*
X14459Y-10733D01*
X14459Y-10733D02*
X14459Y-10133D01*
X14459Y-10133D02*
X14859Y-10133D01*
X15259Y-10133D02*
X15659Y-10133D01*
X15659Y-10133D02*
X15659Y-10733D01*
X15659Y-10733D02*
X15259Y-10733D01*
G54D14*
X14133Y-7184D02*
X14133Y-9704D01*
X14133Y-9704D02*
X16653Y-9704D01*
X16653Y-9704D02*
X16653Y-7578D01*
X16653Y-7578D02*
X16259Y-7184D01*
X16259Y-7184D02*
X14133Y-7184D01*
G54D15*
X16377Y-7657D02*
X16377Y-7460D01*
X16377Y-7460D02*
X16180Y-7460D01*
X16180Y-9428D02*
X16377Y-9428D01*
X16377Y-9428D02*
X16377Y-9231D01*
X14409Y-9231D02*
X14409Y-9428D01*
X14409Y-9428D02*
X14606Y-9428D01*
X14606Y-7460D02*
X14409Y-7460D01*
X14409Y-7460D02*
X14409Y-7657D01*
G54D13*
X18683Y-6718D02*
X15883Y-6718D01*
X15883Y-6718D02*
X15883Y-5918D01*
X15883Y-5918D02*
X18683Y-5918D01*
X18683Y-5918D02*
X18683Y-6718D01*
X18683Y-6518D02*
X18483Y-6718D01*
G54D12*
X16884Y-7586D02*
X16884Y-9146D01*
X16884Y-9146D02*
X18784Y-9146D01*
X18784Y-9146D02*
X18784Y-7586D01*
X18784Y-7586D02*
X16884Y-7586D01*
X17084Y-7586D02*
X17084Y-7156D01*
X17584Y-7586D02*
X17584Y-7156D01*
X18084Y-7586D02*
X18084Y-7156D01*
X18584Y-7156D02*
X18584Y-7586D01*
X18584Y-9146D02*
X18584Y-9576D01*
X18084Y-9576D02*
X18084Y-9146D01*
X17584Y-9576D02*
X17584Y-9146D01*
X17084Y-9576D02*
X17084Y-9146D01*
X17360Y-8856D02*
G75*
G03X17360Y-8856I-186J0D01*
G74*
G01*
X16884Y-1916D02*
X16884Y-3476D01*
X16884Y-3476D02*
X18784Y-3476D01*
X18784Y-3476D02*
X18784Y-1916D01*
X18784Y-1916D02*
X16884Y-1916D01*
X17084Y-1916D02*
X17084Y-1486D01*
X17584Y-1916D02*
X17584Y-1486D01*
X18084Y-1916D02*
X18084Y-1486D01*
X18584Y-1486D02*
X18584Y-1916D01*
X18584Y-3476D02*
X18584Y-3906D01*
X18084Y-3906D02*
X18084Y-3476D01*
X17584Y-3906D02*
X17584Y-3476D01*
X17084Y-3906D02*
X17084Y-3476D01*
X17360Y-3186D02*
G75*
G03X17360Y-3186I-186J0D01*
G74*
G01*
G54D13*
X18683Y-1049D02*
X15883Y-1049D01*
X15883Y-1049D02*
X15883Y-249D01*
X15883Y-249D02*
X18683Y-249D01*
X18683Y-249D02*
X18683Y-1049D01*
X18683Y-849D02*
X18483Y-1049D01*
G54D14*
X14133Y-1515D02*
X14133Y-4035D01*
X14133Y-4035D02*
X16653Y-4035D01*
X16653Y-4035D02*
X16653Y-1909D01*
X16653Y-1909D02*
X16259Y-1515D01*
X16259Y-1515D02*
X14133Y-1515D01*
G54D15*
X16377Y-1988D02*
X16377Y-1791D01*
X16377Y-1791D02*
X16180Y-1791D01*
X16180Y-3759D02*
X16377Y-3759D01*
X16377Y-3759D02*
X16377Y-3562D01*
X14409Y-3562D02*
X14409Y-3759D01*
X14409Y-3759D02*
X14606Y-3759D01*
X14606Y-1791D02*
X14409Y-1791D01*
X14409Y-1791D02*
X14409Y-1988D01*
G54D16*
X14459Y-5063D02*
G75*
G03X14459Y-5063I-50J0D01*
G74*
G01*
X14859Y-5063D02*
X14459Y-5063D01*
X14459Y-5063D02*
X14459Y-4463D01*
X14459Y-4463D02*
X14859Y-4463D01*
X15259Y-4463D02*
X15659Y-4463D01*
X15659Y-4463D02*
X15659Y-5063D01*
X15659Y-5063D02*
X15259Y-5063D01*
G54D12*
X18165Y-5056D02*
X18165Y-4156D01*
X18165Y-4156D02*
X17515Y-4156D01*
X16815Y-5056D02*
X16165Y-5056D01*
X16165Y-5056D02*
X16165Y-4156D01*
X16165Y-4156D02*
X16815Y-4156D01*
X17515Y-5056D02*
X18165Y-5056D01*
G54D17*
X10262Y-1034D02*
X10262Y-4066D01*
X9868Y-1034D02*
X9868Y-4066D01*
X9868Y-4066D02*
X13490Y-4066D01*
X13490Y-4066D02*
X13490Y-1034D01*
X13490Y-1034D02*
X9868Y-1034D01*
X479Y-1034D02*
X479Y-4066D01*
X85Y-1034D02*
X85Y-4066D01*
X85Y-4066D02*
X3707Y-4066D01*
X3707Y-4066D02*
X3707Y-1034D01*
X3707Y-1034D02*
X85Y-1034D01*
G54D12*
X8381Y-5056D02*
X8381Y-4156D01*
X8381Y-4156D02*
X7731Y-4156D01*
X7031Y-5056D02*
X6381Y-5056D01*
X6381Y-5056D02*
X6381Y-4156D01*
X6381Y-4156D02*
X7031Y-4156D01*
X7731Y-5056D02*
X8381Y-5056D01*
G54D16*
X4675Y-5063D02*
G75*
G03X4675Y-5063I-50J0D01*
G74*
G01*
X5075Y-5063D02*
X4675Y-5063D01*
X4675Y-5063D02*
X4675Y-4463D01*
X4675Y-4463D02*
X5075Y-4463D01*
X5475Y-4463D02*
X5875Y-4463D01*
X5875Y-4463D02*
X5875Y-5063D01*
X5875Y-5063D02*
X5475Y-5063D01*
G54D14*
X4350Y-1515D02*
X4350Y-4035D01*
X4350Y-4035D02*
X6870Y-4035D01*
X6870Y-4035D02*
X6870Y-1909D01*
X6870Y-1909D02*
X6476Y-1515D01*
X6476Y-1515D02*
X4350Y-1515D01*
G54D15*
X6594Y-1988D02*
X6594Y-1791D01*
X6594Y-1791D02*
X6397Y-1791D01*
X6397Y-3759D02*
X6594Y-3759D01*
X6594Y-3759D02*
X6594Y-3562D01*
X4626Y-3562D02*
X4626Y-3759D01*
X4626Y-3759D02*
X4823Y-3759D01*
X4823Y-1791D02*
X4626Y-1791D01*
X4626Y-1791D02*
X4626Y-1988D01*
G54D13*
X8900Y-1049D02*
X6100Y-1049D01*
X6100Y-1049D02*
X6100Y-249D01*
X6100Y-249D02*
X8900Y-249D01*
X8900Y-249D02*
X8900Y-1049D01*
X8900Y-849D02*
X8700Y-1049D01*
G54D12*
X7101Y-1916D02*
X7101Y-3476D01*
X7101Y-3476D02*
X9001Y-3476D01*
X9001Y-3476D02*
X9001Y-1916D01*
X9001Y-1916D02*
X7101Y-1916D01*
X7301Y-1916D02*
X7301Y-1486D01*
X7801Y-1916D02*
X7801Y-1486D01*
X8301Y-1916D02*
X8301Y-1486D01*
X8801Y-1486D02*
X8801Y-1916D01*
X8801Y-3476D02*
X8801Y-3906D01*
X8301Y-3906D02*
X8301Y-3476D01*
X7801Y-3906D02*
X7801Y-3476D01*
X7301Y-3906D02*
X7301Y-3476D01*
X7577Y-3186D02*
G75*
G03X7577Y-3186I-186J0D01*
G74*
G01*
G54D14*
X7763Y-8085D02*
X7763Y-7790D01*
X8072Y-8057D02*
X8058Y-8071D01*
X8016Y-8085D01*
X7987Y-8085D01*
X7945Y-8071D01*
X7917Y-8043D01*
X7903Y-8015D01*
X7889Y-7959D01*
X7889Y-7916D01*
X7903Y-7860D01*
X7917Y-7832D01*
X7945Y-7804D01*
X7987Y-7790D01*
X8016Y-7790D01*
X8058Y-7804D01*
X8072Y-7818D01*
X8353Y-8085D02*
X8184Y-8085D01*
X8268Y-8085D02*
X8268Y-7790D01*
X8240Y-7832D01*
X8212Y-7860D01*
X8184Y-7874D01*
X6699Y-9062D02*
X6741Y-9076D01*
X6811Y-9076D01*
X6840Y-9062D01*
X6854Y-9048D01*
X6868Y-9019D01*
X6868Y-8991D01*
X6854Y-8963D01*
X6840Y-8949D01*
X6811Y-8935D01*
X6755Y-8921D01*
X6727Y-8907D01*
X6713Y-8893D01*
X6699Y-8865D01*
X6699Y-8837D01*
X6713Y-8809D01*
X6727Y-8795D01*
X6755Y-8781D01*
X6825Y-8781D01*
X6868Y-8795D01*
X6994Y-9076D02*
X6994Y-8781D01*
X7106Y-8781D01*
X7135Y-8795D01*
X7149Y-8809D01*
X7163Y-8837D01*
X7163Y-8879D01*
X7149Y-8907D01*
X7135Y-8921D01*
X7106Y-8935D01*
X6994Y-8935D01*
X7261Y-8781D02*
X7444Y-8781D01*
X7345Y-8893D01*
X7387Y-8893D01*
X7415Y-8907D01*
X7430Y-8921D01*
X7444Y-8949D01*
X7444Y-9019D01*
X7430Y-9048D01*
X7415Y-9062D01*
X7387Y-9076D01*
X7303Y-9076D01*
X7275Y-9062D01*
X7261Y-9048D01*
X7696Y-8879D02*
X7696Y-9076D01*
X7626Y-8767D02*
X7556Y-8977D01*
X7739Y-8977D01*
X7893Y-8907D02*
X7865Y-8893D01*
X7851Y-8879D01*
X7837Y-8851D01*
X7837Y-8837D01*
X7851Y-8809D01*
X7865Y-8795D01*
X7893Y-8781D01*
X7949Y-8781D01*
X7977Y-8795D01*
X7991Y-8809D01*
X8005Y-8837D01*
X8005Y-8851D01*
X7991Y-8879D01*
X7977Y-8893D01*
X7949Y-8907D01*
X7893Y-8907D01*
X7865Y-8921D01*
X7851Y-8935D01*
X7837Y-8963D01*
X7837Y-9019D01*
X7851Y-9048D01*
X7865Y-9062D01*
X7893Y-9076D01*
X7949Y-9076D01*
X7977Y-9062D01*
X7991Y-9048D01*
X8005Y-9019D01*
X8005Y-8963D01*
X7991Y-8935D01*
X7977Y-8921D01*
X7949Y-8907D01*
X8286Y-9076D02*
X8118Y-9076D01*
X8202Y-9076D02*
X8202Y-8781D01*
X8174Y-8823D01*
X8146Y-8851D01*
X8118Y-8865D01*
X8581Y-9048D02*
X8567Y-9062D01*
X8525Y-9076D01*
X8497Y-9076D01*
X8455Y-9062D01*
X8427Y-9033D01*
X8413Y-9005D01*
X8399Y-8949D01*
X8399Y-8907D01*
X8413Y-8851D01*
X8427Y-8823D01*
X8455Y-8795D01*
X8497Y-8781D01*
X8525Y-8781D01*
X8567Y-8795D01*
X8581Y-8809D01*
X8708Y-9076D02*
X8708Y-8781D01*
X8876Y-9076D01*
X8876Y-8781D01*
G54D18*
X7204Y-6480D02*
X7204Y-6080D01*
X7357Y-6080D01*
X7395Y-6099D01*
X7414Y-6118D01*
X7433Y-6156D01*
X7433Y-6214D01*
X7414Y-6252D01*
X7395Y-6271D01*
X7357Y-6290D01*
X7204Y-6290D01*
X7585Y-6118D02*
X7604Y-6099D01*
X7642Y-6080D01*
X7738Y-6080D01*
X7776Y-6099D01*
X7795Y-6118D01*
X7814Y-6156D01*
X7814Y-6195D01*
X7795Y-6252D01*
X7566Y-6480D01*
X7814Y-6480D01*
G54D19*
X7029Y-8745D02*
X7348Y-8745D01*
X7386Y-8726D01*
X7404Y-8707D01*
X7423Y-8670D01*
X7423Y-8594D01*
X7404Y-8557D01*
X7386Y-8538D01*
X7348Y-8519D01*
X7029Y-8519D01*
X7423Y-8125D02*
X7423Y-8351D01*
X7423Y-8238D02*
X7029Y-8238D01*
X7085Y-8276D01*
X7123Y-8313D01*
X7142Y-8351D01*
G54D13*
G54D19*
X4000Y-9270D02*
X4018Y-9289D01*
X4037Y-9345D01*
X4037Y-9382D01*
X4018Y-9439D01*
X3981Y-9476D01*
X3943Y-9495D01*
X3868Y-9514D01*
X3812Y-9514D01*
X3737Y-9495D01*
X3699Y-9476D01*
X3662Y-9439D01*
X3643Y-9382D01*
X3643Y-9345D01*
X3662Y-9289D01*
X3681Y-9270D01*
X4037Y-9101D02*
X3643Y-9101D01*
X3643Y-8951D01*
X3662Y-8913D01*
X3681Y-8895D01*
X3718Y-8876D01*
X3775Y-8876D01*
X3812Y-8895D01*
X3831Y-8913D01*
X3850Y-8951D01*
X3850Y-9101D01*
X3681Y-8726D02*
X3662Y-8707D01*
X3643Y-8670D01*
X3643Y-8576D01*
X3662Y-8538D01*
X3681Y-8519D01*
X3718Y-8501D01*
X3756Y-8501D01*
X3812Y-8519D01*
X4037Y-8745D01*
X4037Y-8501D01*
X4037Y-8125D02*
X4037Y-8351D01*
X4037Y-8238D02*
X3643Y-8238D01*
X3699Y-8276D01*
X3737Y-8313D01*
X3756Y-8351D01*
X3643Y-7882D02*
X3643Y-7844D01*
X3662Y-7806D01*
X3681Y-7788D01*
X3718Y-7769D01*
X3793Y-7750D01*
X3887Y-7750D01*
X3962Y-7769D01*
X4000Y-7788D01*
X4018Y-7806D01*
X4037Y-7844D01*
X4037Y-7882D01*
X4018Y-7919D01*
X4000Y-7938D01*
X3962Y-7957D01*
X3887Y-7975D01*
X3793Y-7975D01*
X3718Y-7957D01*
X3681Y-7938D01*
X3662Y-7919D01*
X3643Y-7882D01*
X3681Y-7600D02*
X3662Y-7581D01*
X3643Y-7544D01*
X3643Y-7450D01*
X3662Y-7412D01*
X3681Y-7394D01*
X3718Y-7375D01*
X3756Y-7375D01*
X3812Y-7394D01*
X4037Y-7619D01*
X4037Y-7375D01*
G54D13*
G54D20*
X5242Y-10369D02*
X5233Y-10378D01*
X5205Y-10387D01*
X5186Y-10387D01*
X5158Y-10378D01*
X5139Y-10359D01*
X5130Y-10340D01*
X5120Y-10303D01*
X5120Y-10275D01*
X5130Y-10237D01*
X5139Y-10218D01*
X5158Y-10200D01*
X5186Y-10190D01*
X5205Y-10190D01*
X5233Y-10200D01*
X5242Y-10209D01*
X5308Y-10190D02*
X5430Y-10190D01*
X5364Y-10265D01*
X5392Y-10265D01*
X5411Y-10275D01*
X5420Y-10284D01*
X5430Y-10303D01*
X5430Y-10350D01*
X5420Y-10369D01*
X5411Y-10378D01*
X5392Y-10387D01*
X5336Y-10387D01*
X5317Y-10378D01*
X5308Y-10369D01*
X4928Y-10644D02*
X4919Y-10653D01*
X4890Y-10662D01*
X4872Y-10662D01*
X4844Y-10653D01*
X4825Y-10634D01*
X4815Y-10615D01*
X4806Y-10578D01*
X4806Y-10550D01*
X4815Y-10512D01*
X4825Y-10493D01*
X4844Y-10475D01*
X4872Y-10465D01*
X4890Y-10465D01*
X4919Y-10475D01*
X4928Y-10484D01*
X5050Y-10465D02*
X5069Y-10465D01*
X5087Y-10475D01*
X5097Y-10484D01*
X5106Y-10503D01*
X5116Y-10540D01*
X5116Y-10587D01*
X5106Y-10625D01*
X5097Y-10644D01*
X5087Y-10653D01*
X5069Y-10662D01*
X5050Y-10662D01*
X5031Y-10653D01*
X5022Y-10644D01*
X5012Y-10625D01*
X5003Y-10587D01*
X5003Y-10540D01*
X5012Y-10503D01*
X5022Y-10484D01*
X5031Y-10475D01*
X5050Y-10465D01*
X5200Y-10644D02*
X5209Y-10653D01*
X5200Y-10662D01*
X5191Y-10653D01*
X5200Y-10644D01*
X5200Y-10662D01*
X5397Y-10662D02*
X5284Y-10662D01*
X5341Y-10662D02*
X5341Y-10465D01*
X5322Y-10493D01*
X5303Y-10512D01*
X5284Y-10522D01*
X5566Y-10531D02*
X5566Y-10662D01*
X5481Y-10531D02*
X5481Y-10634D01*
X5491Y-10653D01*
X5510Y-10662D01*
X5538Y-10662D01*
X5557Y-10653D01*
X5566Y-10644D01*
X5725Y-10559D02*
X5660Y-10559D01*
X5660Y-10662D02*
X5660Y-10465D01*
X5754Y-10465D01*
G54D12*
X7331Y-10397D02*
X7231Y-10254D01*
X7160Y-10397D02*
X7160Y-10097D01*
X7274Y-10097D01*
X7303Y-10111D01*
X7317Y-10125D01*
X7331Y-10154D01*
X7331Y-10197D01*
X7317Y-10225D01*
X7303Y-10239D01*
X7274Y-10254D01*
X7160Y-10254D01*
X7617Y-10397D02*
X7446Y-10397D01*
X7531Y-10397D02*
X7531Y-10097D01*
X7503Y-10139D01*
X7474Y-10168D01*
X7446Y-10182D01*
G54D18*
X1404Y-10635D02*
X1385Y-10654D01*
X1327Y-10673D01*
X1289Y-10673D01*
X1232Y-10654D01*
X1194Y-10616D01*
X1175Y-10578D01*
X1156Y-10502D01*
X1156Y-10445D01*
X1175Y-10368D01*
X1194Y-10330D01*
X1232Y-10292D01*
X1289Y-10273D01*
X1327Y-10273D01*
X1385Y-10292D01*
X1404Y-10311D01*
X1651Y-10273D02*
X1727Y-10273D01*
X1765Y-10292D01*
X1804Y-10330D01*
X1823Y-10407D01*
X1823Y-10540D01*
X1804Y-10616D01*
X1765Y-10654D01*
X1727Y-10673D01*
X1651Y-10673D01*
X1613Y-10654D01*
X1575Y-10616D01*
X1556Y-10540D01*
X1556Y-10407D01*
X1575Y-10330D01*
X1613Y-10292D01*
X1651Y-10273D01*
X1994Y-10673D02*
X1994Y-10273D01*
X2223Y-10673D01*
X2223Y-10273D01*
X2623Y-10673D02*
X2394Y-10673D01*
X2508Y-10673D02*
X2508Y-10273D01*
X2470Y-10330D01*
X2432Y-10368D01*
X2394Y-10388D01*
X11187Y-10635D02*
X11168Y-10654D01*
X11111Y-10673D01*
X11073Y-10673D01*
X11016Y-10654D01*
X10977Y-10616D01*
X10958Y-10578D01*
X10939Y-10502D01*
X10939Y-10445D01*
X10958Y-10368D01*
X10977Y-10330D01*
X11016Y-10292D01*
X11073Y-10273D01*
X11111Y-10273D01*
X11168Y-10292D01*
X11187Y-10311D01*
X11435Y-10273D02*
X11511Y-10273D01*
X11549Y-10292D01*
X11587Y-10330D01*
X11606Y-10407D01*
X11606Y-10540D01*
X11587Y-10616D01*
X11549Y-10654D01*
X11511Y-10673D01*
X11435Y-10673D01*
X11397Y-10654D01*
X11358Y-10616D01*
X11339Y-10540D01*
X11339Y-10407D01*
X11358Y-10330D01*
X11397Y-10292D01*
X11435Y-10273D01*
X11777Y-10673D02*
X11777Y-10273D01*
X12006Y-10673D01*
X12006Y-10273D01*
X12406Y-10673D02*
X12177Y-10673D01*
X12292Y-10673D02*
X12292Y-10273D01*
X12254Y-10330D01*
X12216Y-10368D01*
X12177Y-10388D01*
G54D12*
X17115Y-10397D02*
X17015Y-10254D01*
X16943Y-10397D02*
X16943Y-10097D01*
X17058Y-10097D01*
X17086Y-10111D01*
X17101Y-10125D01*
X17115Y-10154D01*
X17115Y-10197D01*
X17101Y-10225D01*
X17086Y-10239D01*
X17058Y-10254D01*
X16943Y-10254D01*
X17401Y-10397D02*
X17229Y-10397D01*
X17315Y-10397D02*
X17315Y-10097D01*
X17286Y-10139D01*
X17258Y-10168D01*
X17229Y-10182D01*
G54D20*
X15026Y-10369D02*
X15016Y-10378D01*
X14988Y-10387D01*
X14969Y-10387D01*
X14941Y-10378D01*
X14923Y-10359D01*
X14913Y-10340D01*
X14904Y-10303D01*
X14904Y-10275D01*
X14913Y-10237D01*
X14923Y-10218D01*
X14941Y-10200D01*
X14969Y-10190D01*
X14988Y-10190D01*
X15016Y-10200D01*
X15026Y-10209D01*
X15091Y-10190D02*
X15213Y-10190D01*
X15148Y-10265D01*
X15176Y-10265D01*
X15195Y-10275D01*
X15204Y-10284D01*
X15213Y-10303D01*
X15213Y-10350D01*
X15204Y-10369D01*
X15195Y-10378D01*
X15176Y-10387D01*
X15120Y-10387D01*
X15101Y-10378D01*
X15091Y-10369D01*
X14711Y-10644D02*
X14702Y-10653D01*
X14674Y-10662D01*
X14655Y-10662D01*
X14627Y-10653D01*
X14608Y-10634D01*
X14599Y-10615D01*
X14590Y-10578D01*
X14590Y-10550D01*
X14599Y-10512D01*
X14608Y-10493D01*
X14627Y-10475D01*
X14655Y-10465D01*
X14674Y-10465D01*
X14702Y-10475D01*
X14711Y-10484D01*
X14833Y-10465D02*
X14852Y-10465D01*
X14871Y-10475D01*
X14880Y-10484D01*
X14890Y-10503D01*
X14899Y-10540D01*
X14899Y-10587D01*
X14890Y-10625D01*
X14880Y-10644D01*
X14871Y-10653D01*
X14852Y-10662D01*
X14833Y-10662D01*
X14815Y-10653D01*
X14805Y-10644D01*
X14796Y-10625D01*
X14787Y-10587D01*
X14787Y-10540D01*
X14796Y-10503D01*
X14805Y-10484D01*
X14815Y-10475D01*
X14833Y-10465D01*
X14984Y-10644D02*
X14993Y-10653D01*
X14984Y-10662D01*
X14974Y-10653D01*
X14984Y-10644D01*
X14984Y-10662D01*
X15181Y-10662D02*
X15068Y-10662D01*
X15124Y-10662D02*
X15124Y-10465D01*
X15105Y-10493D01*
X15087Y-10512D01*
X15068Y-10522D01*
X15349Y-10531D02*
X15349Y-10662D01*
X15265Y-10531D02*
X15265Y-10634D01*
X15274Y-10653D01*
X15293Y-10662D01*
X15321Y-10662D01*
X15340Y-10653D01*
X15349Y-10644D01*
X15509Y-10559D02*
X15443Y-10559D01*
X15443Y-10662D02*
X15443Y-10465D01*
X15537Y-10465D01*
G54D19*
X16813Y-8745D02*
X17132Y-8745D01*
X17169Y-8726D01*
X17188Y-8707D01*
X17207Y-8670D01*
X17207Y-8594D01*
X17188Y-8557D01*
X17169Y-8538D01*
X17132Y-8519D01*
X16813Y-8519D01*
X17207Y-8125D02*
X17207Y-8351D01*
X17207Y-8238D02*
X16813Y-8238D01*
X16869Y-8276D01*
X16906Y-8313D01*
X16925Y-8351D01*
G54D13*
G54D19*
X13783Y-9270D02*
X13802Y-9289D01*
X13821Y-9345D01*
X13821Y-9382D01*
X13802Y-9439D01*
X13764Y-9476D01*
X13727Y-9495D01*
X13652Y-9514D01*
X13596Y-9514D01*
X13520Y-9495D01*
X13483Y-9476D01*
X13445Y-9439D01*
X13427Y-9382D01*
X13427Y-9345D01*
X13445Y-9289D01*
X13464Y-9270D01*
X13821Y-9101D02*
X13427Y-9101D01*
X13427Y-8951D01*
X13445Y-8913D01*
X13464Y-8895D01*
X13502Y-8876D01*
X13558Y-8876D01*
X13596Y-8895D01*
X13614Y-8913D01*
X13633Y-8951D01*
X13633Y-9101D01*
X13464Y-8726D02*
X13445Y-8707D01*
X13427Y-8670D01*
X13427Y-8576D01*
X13445Y-8538D01*
X13464Y-8519D01*
X13502Y-8501D01*
X13539Y-8501D01*
X13596Y-8519D01*
X13821Y-8745D01*
X13821Y-8501D01*
X13821Y-8125D02*
X13821Y-8351D01*
X13821Y-8238D02*
X13427Y-8238D01*
X13483Y-8276D01*
X13520Y-8313D01*
X13539Y-8351D01*
X13427Y-7882D02*
X13427Y-7844D01*
X13445Y-7806D01*
X13464Y-7788D01*
X13502Y-7769D01*
X13577Y-7750D01*
X13671Y-7750D01*
X13746Y-7769D01*
X13783Y-7788D01*
X13802Y-7806D01*
X13821Y-7844D01*
X13821Y-7882D01*
X13802Y-7919D01*
X13783Y-7938D01*
X13746Y-7957D01*
X13671Y-7975D01*
X13577Y-7975D01*
X13502Y-7957D01*
X13464Y-7938D01*
X13445Y-7919D01*
X13427Y-7882D01*
X13464Y-7600D02*
X13445Y-7581D01*
X13427Y-7544D01*
X13427Y-7450D01*
X13445Y-7412D01*
X13464Y-7394D01*
X13502Y-7375D01*
X13539Y-7375D01*
X13596Y-7394D01*
X13821Y-7619D01*
X13821Y-7375D01*
G54D13*
G54D18*
X16988Y-6480D02*
X16988Y-6080D01*
X17140Y-6080D01*
X17178Y-6099D01*
X17197Y-6118D01*
X17216Y-6156D01*
X17216Y-6214D01*
X17197Y-6252D01*
X17178Y-6271D01*
X17140Y-6290D01*
X16988Y-6290D01*
X17369Y-6118D02*
X17388Y-6099D01*
X17426Y-6080D01*
X17521Y-6080D01*
X17559Y-6099D01*
X17578Y-6118D01*
X17597Y-6156D01*
X17597Y-6195D01*
X17578Y-6252D01*
X17350Y-6480D01*
X17597Y-6480D01*
G54D14*
X17546Y-8085D02*
X17546Y-7790D01*
X17855Y-8057D02*
X17841Y-8071D01*
X17799Y-8085D01*
X17771Y-8085D01*
X17729Y-8071D01*
X17701Y-8043D01*
X17687Y-8015D01*
X17673Y-7959D01*
X17673Y-7916D01*
X17687Y-7860D01*
X17701Y-7832D01*
X17729Y-7804D01*
X17771Y-7790D01*
X17799Y-7790D01*
X17841Y-7804D01*
X17855Y-7818D01*
X18136Y-8085D02*
X17968Y-8085D01*
X18052Y-8085D02*
X18052Y-7790D01*
X18024Y-7832D01*
X17996Y-7860D01*
X17968Y-7874D01*
X16483Y-9062D02*
X16525Y-9076D01*
X16595Y-9076D01*
X16623Y-9062D01*
X16637Y-9048D01*
X16651Y-9019D01*
X16651Y-8991D01*
X16637Y-8963D01*
X16623Y-8949D01*
X16595Y-8935D01*
X16539Y-8921D01*
X16511Y-8907D01*
X16497Y-8893D01*
X16483Y-8865D01*
X16483Y-8837D01*
X16497Y-8809D01*
X16511Y-8795D01*
X16539Y-8781D01*
X16609Y-8781D01*
X16651Y-8795D01*
X16778Y-9076D02*
X16778Y-8781D01*
X16890Y-8781D01*
X16918Y-8795D01*
X16932Y-8809D01*
X16946Y-8837D01*
X16946Y-8879D01*
X16932Y-8907D01*
X16918Y-8921D01*
X16890Y-8935D01*
X16778Y-8935D01*
X17044Y-8781D02*
X17227Y-8781D01*
X17129Y-8893D01*
X17171Y-8893D01*
X17199Y-8907D01*
X17213Y-8921D01*
X17227Y-8949D01*
X17227Y-9019D01*
X17213Y-9048D01*
X17199Y-9062D01*
X17171Y-9076D01*
X17087Y-9076D01*
X17058Y-9062D01*
X17044Y-9048D01*
X17480Y-8879D02*
X17480Y-9076D01*
X17410Y-8767D02*
X17339Y-8977D01*
X17522Y-8977D01*
X17677Y-8907D02*
X17648Y-8893D01*
X17634Y-8879D01*
X17620Y-8851D01*
X17620Y-8837D01*
X17634Y-8809D01*
X17648Y-8795D01*
X17677Y-8781D01*
X17733Y-8781D01*
X17761Y-8795D01*
X17775Y-8809D01*
X17789Y-8837D01*
X17789Y-8851D01*
X17775Y-8879D01*
X17761Y-8893D01*
X17733Y-8907D01*
X17677Y-8907D01*
X17648Y-8921D01*
X17634Y-8935D01*
X17620Y-8963D01*
X17620Y-9019D01*
X17634Y-9048D01*
X17648Y-9062D01*
X17677Y-9076D01*
X17733Y-9076D01*
X17761Y-9062D01*
X17775Y-9048D01*
X17789Y-9019D01*
X17789Y-8963D01*
X17775Y-8935D01*
X17761Y-8921D01*
X17733Y-8907D01*
X18070Y-9076D02*
X17901Y-9076D01*
X17986Y-9076D02*
X17986Y-8781D01*
X17958Y-8823D01*
X17929Y-8851D01*
X17901Y-8865D01*
X18365Y-9048D02*
X18351Y-9062D01*
X18309Y-9076D01*
X18281Y-9076D01*
X18238Y-9062D01*
X18210Y-9033D01*
X18196Y-9005D01*
X18182Y-8949D01*
X18182Y-8907D01*
X18196Y-8851D01*
X18210Y-8823D01*
X18238Y-8795D01*
X18281Y-8781D01*
X18309Y-8781D01*
X18351Y-8795D01*
X18365Y-8809D01*
X18491Y-9076D02*
X18491Y-8781D01*
X18660Y-9076D01*
X18660Y-8781D01*
X17546Y-2416D02*
X17546Y-2121D01*
X17855Y-2388D02*
X17841Y-2402D01*
X17799Y-2416D01*
X17771Y-2416D01*
X17729Y-2402D01*
X17701Y-2374D01*
X17687Y-2346D01*
X17673Y-2289D01*
X17673Y-2247D01*
X17687Y-2191D01*
X17701Y-2163D01*
X17729Y-2135D01*
X17771Y-2121D01*
X17799Y-2121D01*
X17841Y-2135D01*
X17855Y-2149D01*
X18136Y-2416D02*
X17968Y-2416D01*
X18052Y-2416D02*
X18052Y-2121D01*
X18024Y-2163D01*
X17996Y-2191D01*
X17968Y-2205D01*
X16483Y-3392D02*
X16525Y-3406D01*
X16595Y-3406D01*
X16623Y-3392D01*
X16637Y-3378D01*
X16651Y-3350D01*
X16651Y-3322D01*
X16637Y-3294D01*
X16623Y-3280D01*
X16595Y-3266D01*
X16539Y-3252D01*
X16511Y-3238D01*
X16497Y-3224D01*
X16483Y-3196D01*
X16483Y-3167D01*
X16497Y-3139D01*
X16511Y-3125D01*
X16539Y-3111D01*
X16609Y-3111D01*
X16651Y-3125D01*
X16778Y-3406D02*
X16778Y-3111D01*
X16890Y-3111D01*
X16918Y-3125D01*
X16932Y-3139D01*
X16946Y-3167D01*
X16946Y-3210D01*
X16932Y-3238D01*
X16918Y-3252D01*
X16890Y-3266D01*
X16778Y-3266D01*
X17044Y-3111D02*
X17227Y-3111D01*
X17129Y-3224D01*
X17171Y-3224D01*
X17199Y-3238D01*
X17213Y-3252D01*
X17227Y-3280D01*
X17227Y-3350D01*
X17213Y-3378D01*
X17199Y-3392D01*
X17171Y-3406D01*
X17087Y-3406D01*
X17058Y-3392D01*
X17044Y-3378D01*
X17480Y-3210D02*
X17480Y-3406D01*
X17410Y-3097D02*
X17339Y-3308D01*
X17522Y-3308D01*
X17677Y-3238D02*
X17648Y-3224D01*
X17634Y-3210D01*
X17620Y-3182D01*
X17620Y-3167D01*
X17634Y-3139D01*
X17648Y-3125D01*
X17677Y-3111D01*
X17733Y-3111D01*
X17761Y-3125D01*
X17775Y-3139D01*
X17789Y-3167D01*
X17789Y-3182D01*
X17775Y-3210D01*
X17761Y-3224D01*
X17733Y-3238D01*
X17677Y-3238D01*
X17648Y-3252D01*
X17634Y-3266D01*
X17620Y-3294D01*
X17620Y-3350D01*
X17634Y-3378D01*
X17648Y-3392D01*
X17677Y-3406D01*
X17733Y-3406D01*
X17761Y-3392D01*
X17775Y-3378D01*
X17789Y-3350D01*
X17789Y-3294D01*
X17775Y-3266D01*
X17761Y-3252D01*
X17733Y-3238D01*
X18070Y-3406D02*
X17901Y-3406D01*
X17986Y-3406D02*
X17986Y-3111D01*
X17958Y-3153D01*
X17929Y-3182D01*
X17901Y-3196D01*
X18365Y-3378D02*
X18351Y-3392D01*
X18309Y-3406D01*
X18281Y-3406D01*
X18238Y-3392D01*
X18210Y-3364D01*
X18196Y-3336D01*
X18182Y-3280D01*
X18182Y-3238D01*
X18196Y-3182D01*
X18210Y-3153D01*
X18238Y-3125D01*
X18281Y-3111D01*
X18309Y-3111D01*
X18351Y-3125D01*
X18365Y-3139D01*
X18491Y-3406D02*
X18491Y-3111D01*
X18660Y-3406D01*
X18660Y-3111D01*
G54D18*
X16988Y-811D02*
X16988Y-411D01*
X17140Y-411D01*
X17178Y-430D01*
X17197Y-449D01*
X17216Y-487D01*
X17216Y-544D01*
X17197Y-582D01*
X17178Y-601D01*
X17140Y-621D01*
X16988Y-621D01*
X17369Y-449D02*
X17388Y-430D01*
X17426Y-411D01*
X17521Y-411D01*
X17559Y-430D01*
X17578Y-449D01*
X17597Y-487D01*
X17597Y-525D01*
X17578Y-582D01*
X17350Y-811D01*
X17597Y-811D01*
G54D19*
X16813Y-3075D02*
X17132Y-3075D01*
X17169Y-3057D01*
X17188Y-3038D01*
X17207Y-3000D01*
X17207Y-2925D01*
X17188Y-2888D01*
X17169Y-2869D01*
X17132Y-2850D01*
X16813Y-2850D01*
X17207Y-2456D02*
X17207Y-2681D01*
X17207Y-2569D02*
X16813Y-2569D01*
X16869Y-2606D01*
X16906Y-2644D01*
X16925Y-2681D01*
G54D13*
G54D19*
X13783Y-3601D02*
X13802Y-3619D01*
X13821Y-3676D01*
X13821Y-3713D01*
X13802Y-3769D01*
X13764Y-3807D01*
X13727Y-3826D01*
X13652Y-3845D01*
X13596Y-3845D01*
X13520Y-3826D01*
X13483Y-3807D01*
X13445Y-3769D01*
X13427Y-3713D01*
X13427Y-3676D01*
X13445Y-3619D01*
X13464Y-3601D01*
X13821Y-3432D02*
X13427Y-3432D01*
X13427Y-3282D01*
X13445Y-3244D01*
X13464Y-3225D01*
X13502Y-3207D01*
X13558Y-3207D01*
X13596Y-3225D01*
X13614Y-3244D01*
X13633Y-3282D01*
X13633Y-3432D01*
X13464Y-3057D02*
X13445Y-3038D01*
X13427Y-3000D01*
X13427Y-2906D01*
X13445Y-2869D01*
X13464Y-2850D01*
X13502Y-2831D01*
X13539Y-2831D01*
X13596Y-2850D01*
X13821Y-3075D01*
X13821Y-2831D01*
X13821Y-2456D02*
X13821Y-2681D01*
X13821Y-2569D02*
X13427Y-2569D01*
X13483Y-2606D01*
X13520Y-2644D01*
X13539Y-2681D01*
X13427Y-2212D02*
X13427Y-2175D01*
X13445Y-2137D01*
X13464Y-2118D01*
X13502Y-2100D01*
X13577Y-2081D01*
X13671Y-2081D01*
X13746Y-2100D01*
X13783Y-2118D01*
X13802Y-2137D01*
X13821Y-2175D01*
X13821Y-2212D01*
X13802Y-2250D01*
X13783Y-2269D01*
X13746Y-2287D01*
X13671Y-2306D01*
X13577Y-2306D01*
X13502Y-2287D01*
X13464Y-2269D01*
X13445Y-2250D01*
X13427Y-2212D01*
X13464Y-1931D02*
X13445Y-1912D01*
X13427Y-1875D01*
X13427Y-1781D01*
X13445Y-1743D01*
X13464Y-1724D01*
X13502Y-1706D01*
X13539Y-1706D01*
X13596Y-1724D01*
X13821Y-1950D01*
X13821Y-1706D01*
G54D13*
G54D20*
X15026Y-4699D02*
X15016Y-4709D01*
X14988Y-4718D01*
X14969Y-4718D01*
X14941Y-4709D01*
X14923Y-4690D01*
X14913Y-4671D01*
X14904Y-4634D01*
X14904Y-4605D01*
X14913Y-4568D01*
X14923Y-4549D01*
X14941Y-4530D01*
X14969Y-4521D01*
X14988Y-4521D01*
X15016Y-4530D01*
X15026Y-4540D01*
X15091Y-4521D02*
X15213Y-4521D01*
X15148Y-4596D01*
X15176Y-4596D01*
X15195Y-4605D01*
X15204Y-4615D01*
X15213Y-4634D01*
X15213Y-4680D01*
X15204Y-4699D01*
X15195Y-4709D01*
X15176Y-4718D01*
X15120Y-4718D01*
X15101Y-4709D01*
X15091Y-4699D01*
X14711Y-4974D02*
X14702Y-4984D01*
X14674Y-4993D01*
X14655Y-4993D01*
X14627Y-4984D01*
X14608Y-4965D01*
X14599Y-4946D01*
X14590Y-4909D01*
X14590Y-4880D01*
X14599Y-4843D01*
X14608Y-4824D01*
X14627Y-4805D01*
X14655Y-4796D01*
X14674Y-4796D01*
X14702Y-4805D01*
X14711Y-4815D01*
X14833Y-4796D02*
X14852Y-4796D01*
X14871Y-4805D01*
X14880Y-4815D01*
X14890Y-4834D01*
X14899Y-4871D01*
X14899Y-4918D01*
X14890Y-4955D01*
X14880Y-4974D01*
X14871Y-4984D01*
X14852Y-4993D01*
X14833Y-4993D01*
X14815Y-4984D01*
X14805Y-4974D01*
X14796Y-4955D01*
X14787Y-4918D01*
X14787Y-4871D01*
X14796Y-4834D01*
X14805Y-4815D01*
X14815Y-4805D01*
X14833Y-4796D01*
X14984Y-4974D02*
X14993Y-4984D01*
X14984Y-4993D01*
X14974Y-4984D01*
X14984Y-4974D01*
X14984Y-4993D01*
X15181Y-4993D02*
X15068Y-4993D01*
X15124Y-4993D02*
X15124Y-4796D01*
X15105Y-4824D01*
X15087Y-4843D01*
X15068Y-4852D01*
X15349Y-4862D02*
X15349Y-4993D01*
X15265Y-4862D02*
X15265Y-4965D01*
X15274Y-4984D01*
X15293Y-4993D01*
X15321Y-4993D01*
X15340Y-4984D01*
X15349Y-4974D01*
X15509Y-4890D02*
X15443Y-4890D01*
X15443Y-4993D02*
X15443Y-4796D01*
X15537Y-4796D01*
G54D12*
X17115Y-4727D02*
X17015Y-4584D01*
X16943Y-4727D02*
X16943Y-4427D01*
X17058Y-4427D01*
X17086Y-4442D01*
X17101Y-4456D01*
X17115Y-4484D01*
X17115Y-4527D01*
X17101Y-4556D01*
X17086Y-4570D01*
X17058Y-4584D01*
X16943Y-4584D01*
X17401Y-4727D02*
X17229Y-4727D01*
X17315Y-4727D02*
X17315Y-4427D01*
X17286Y-4470D01*
X17258Y-4499D01*
X17229Y-4513D01*
G54D18*
X11187Y-4966D02*
X11168Y-4985D01*
X11111Y-5004D01*
X11073Y-5004D01*
X11016Y-4985D01*
X10977Y-4947D01*
X10958Y-4909D01*
X10939Y-4832D01*
X10939Y-4775D01*
X10958Y-4699D01*
X10977Y-4661D01*
X11016Y-4623D01*
X11073Y-4604D01*
X11111Y-4604D01*
X11168Y-4623D01*
X11187Y-4642D01*
X11435Y-4604D02*
X11511Y-4604D01*
X11549Y-4623D01*
X11587Y-4661D01*
X11606Y-4737D01*
X11606Y-4871D01*
X11587Y-4947D01*
X11549Y-4985D01*
X11511Y-5004D01*
X11435Y-5004D01*
X11397Y-4985D01*
X11358Y-4947D01*
X11339Y-4871D01*
X11339Y-4737D01*
X11358Y-4661D01*
X11397Y-4623D01*
X11435Y-4604D01*
X11777Y-5004D02*
X11777Y-4604D01*
X12006Y-5004D01*
X12006Y-4604D01*
X12406Y-5004D02*
X12177Y-5004D01*
X12292Y-5004D02*
X12292Y-4604D01*
X12254Y-4661D01*
X12216Y-4699D01*
X12177Y-4718D01*
X1404Y-4966D02*
X1385Y-4985D01*
X1327Y-5004D01*
X1289Y-5004D01*
X1232Y-4985D01*
X1194Y-4947D01*
X1175Y-4909D01*
X1156Y-4832D01*
X1156Y-4775D01*
X1175Y-4699D01*
X1194Y-4661D01*
X1232Y-4623D01*
X1289Y-4604D01*
X1327Y-4604D01*
X1385Y-4623D01*
X1404Y-4642D01*
X1651Y-4604D02*
X1727Y-4604D01*
X1765Y-4623D01*
X1804Y-4661D01*
X1823Y-4737D01*
X1823Y-4871D01*
X1804Y-4947D01*
X1765Y-4985D01*
X1727Y-5004D01*
X1651Y-5004D01*
X1613Y-4985D01*
X1575Y-4947D01*
X1556Y-4871D01*
X1556Y-4737D01*
X1575Y-4661D01*
X1613Y-4623D01*
X1651Y-4604D01*
X1994Y-5004D02*
X1994Y-4604D01*
X2223Y-5004D01*
X2223Y-4604D01*
X2623Y-5004D02*
X2394Y-5004D01*
X2508Y-5004D02*
X2508Y-4604D01*
X2470Y-4661D01*
X2432Y-4699D01*
X2394Y-4718D01*
G54D12*
X7331Y-4727D02*
X7231Y-4584D01*
X7160Y-4727D02*
X7160Y-4427D01*
X7274Y-4427D01*
X7303Y-4442D01*
X7317Y-4456D01*
X7331Y-4484D01*
X7331Y-4527D01*
X7317Y-4556D01*
X7303Y-4570D01*
X7274Y-4584D01*
X7160Y-4584D01*
X7617Y-4727D02*
X7446Y-4727D01*
X7531Y-4727D02*
X7531Y-4427D01*
X7503Y-4470D01*
X7474Y-4499D01*
X7446Y-4513D01*
G54D20*
X5242Y-4699D02*
X5233Y-4709D01*
X5205Y-4718D01*
X5186Y-4718D01*
X5158Y-4709D01*
X5139Y-4690D01*
X5130Y-4671D01*
X5120Y-4634D01*
X5120Y-4605D01*
X5130Y-4568D01*
X5139Y-4549D01*
X5158Y-4530D01*
X5186Y-4521D01*
X5205Y-4521D01*
X5233Y-4530D01*
X5242Y-4540D01*
X5308Y-4521D02*
X5430Y-4521D01*
X5364Y-4596D01*
X5392Y-4596D01*
X5411Y-4605D01*
X5420Y-4615D01*
X5430Y-4634D01*
X5430Y-4680D01*
X5420Y-4699D01*
X5411Y-4709D01*
X5392Y-4718D01*
X5336Y-4718D01*
X5317Y-4709D01*
X5308Y-4699D01*
X4928Y-4974D02*
X4919Y-4984D01*
X4890Y-4993D01*
X4872Y-4993D01*
X4844Y-4984D01*
X4825Y-4965D01*
X4815Y-4946D01*
X4806Y-4909D01*
X4806Y-4880D01*
X4815Y-4843D01*
X4825Y-4824D01*
X4844Y-4805D01*
X4872Y-4796D01*
X4890Y-4796D01*
X4919Y-4805D01*
X4928Y-4815D01*
X5050Y-4796D02*
X5069Y-4796D01*
X5087Y-4805D01*
X5097Y-4815D01*
X5106Y-4834D01*
X5116Y-4871D01*
X5116Y-4918D01*
X5106Y-4955D01*
X5097Y-4974D01*
X5087Y-4984D01*
X5069Y-4993D01*
X5050Y-4993D01*
X5031Y-4984D01*
X5022Y-4974D01*
X5012Y-4955D01*
X5003Y-4918D01*
X5003Y-4871D01*
X5012Y-4834D01*
X5022Y-4815D01*
X5031Y-4805D01*
X5050Y-4796D01*
X5200Y-4974D02*
X5209Y-4984D01*
X5200Y-4993D01*
X5191Y-4984D01*
X5200Y-4974D01*
X5200Y-4993D01*
X5397Y-4993D02*
X5284Y-4993D01*
X5341Y-4993D02*
X5341Y-4796D01*
X5322Y-4824D01*
X5303Y-4843D01*
X5284Y-4852D01*
X5566Y-4862D02*
X5566Y-4993D01*
X5481Y-4862D02*
X5481Y-4965D01*
X5491Y-4984D01*
X5510Y-4993D01*
X5538Y-4993D01*
X5557Y-4984D01*
X5566Y-4974D01*
X5725Y-4890D02*
X5660Y-4890D01*
X5660Y-4993D02*
X5660Y-4796D01*
X5754Y-4796D01*
G54D19*
X7029Y-3075D02*
X7348Y-3075D01*
X7386Y-3057D01*
X7404Y-3038D01*
X7423Y-3000D01*
X7423Y-2925D01*
X7404Y-2888D01*
X7386Y-2869D01*
X7348Y-2850D01*
X7029Y-2850D01*
X7423Y-2456D02*
X7423Y-2681D01*
X7423Y-2569D02*
X7029Y-2569D01*
X7085Y-2606D01*
X7123Y-2644D01*
X7142Y-2681D01*
G54D13*
G54D19*
X4000Y-3601D02*
X4018Y-3619D01*
X4037Y-3676D01*
X4037Y-3713D01*
X4018Y-3769D01*
X3981Y-3807D01*
X3943Y-3826D01*
X3868Y-3845D01*
X3812Y-3845D01*
X3737Y-3826D01*
X3699Y-3807D01*
X3662Y-3769D01*
X3643Y-3713D01*
X3643Y-3676D01*
X3662Y-3619D01*
X3681Y-3601D01*
X4037Y-3432D02*
X3643Y-3432D01*
X3643Y-3282D01*
X3662Y-3244D01*
X3681Y-3225D01*
X3718Y-3207D01*
X3775Y-3207D01*
X3812Y-3225D01*
X3831Y-3244D01*
X3850Y-3282D01*
X3850Y-3432D01*
X3681Y-3057D02*
X3662Y-3038D01*
X3643Y-3000D01*
X3643Y-2906D01*
X3662Y-2869D01*
X3681Y-2850D01*
X3718Y-2831D01*
X3756Y-2831D01*
X3812Y-2850D01*
X4037Y-3075D01*
X4037Y-2831D01*
X4037Y-2456D02*
X4037Y-2681D01*
X4037Y-2569D02*
X3643Y-2569D01*
X3699Y-2606D01*
X3737Y-2644D01*
X3756Y-2681D01*
X3643Y-2212D02*
X3643Y-2175D01*
X3662Y-2137D01*
X3681Y-2118D01*
X3718Y-2100D01*
X3793Y-2081D01*
X3887Y-2081D01*
X3962Y-2100D01*
X4000Y-2118D01*
X4018Y-2137D01*
X4037Y-2175D01*
X4037Y-2212D01*
X4018Y-2250D01*
X4000Y-2269D01*
X3962Y-2287D01*
X3887Y-2306D01*
X3793Y-2306D01*
X3718Y-2287D01*
X3681Y-2269D01*
X3662Y-2250D01*
X3643Y-2212D01*
X3681Y-1931D02*
X3662Y-1912D01*
X3643Y-1875D01*
X3643Y-1781D01*
X3662Y-1743D01*
X3681Y-1724D01*
X3718Y-1706D01*
X3756Y-1706D01*
X3812Y-1724D01*
X4037Y-1950D01*
X4037Y-1706D01*
G54D13*
G54D18*
X7204Y-811D02*
X7204Y-411D01*
X7357Y-411D01*
X7395Y-430D01*
X7414Y-449D01*
X7433Y-487D01*
X7433Y-544D01*
X7414Y-582D01*
X7395Y-601D01*
X7357Y-621D01*
X7204Y-621D01*
X7585Y-449D02*
X7604Y-430D01*
X7642Y-411D01*
X7738Y-411D01*
X7776Y-430D01*
X7795Y-449D01*
X7814Y-487D01*
X7814Y-525D01*
X7795Y-582D01*
X7566Y-811D01*
X7814Y-811D01*
G54D14*
X7763Y-2416D02*
X7763Y-2121D01*
X8072Y-2388D02*
X8058Y-2402D01*
X8016Y-2416D01*
X7987Y-2416D01*
X7945Y-2402D01*
X7917Y-2374D01*
X7903Y-2346D01*
X7889Y-2289D01*
X7889Y-2247D01*
X7903Y-2191D01*
X7917Y-2163D01*
X7945Y-2135D01*
X7987Y-2121D01*
X8016Y-2121D01*
X8058Y-2135D01*
X8072Y-2149D01*
X8353Y-2416D02*
X8184Y-2416D01*
X8268Y-2416D02*
X8268Y-2121D01*
X8240Y-2163D01*
X8212Y-2191D01*
X8184Y-2205D01*
X6699Y-3392D02*
X6741Y-3406D01*
X6811Y-3406D01*
X6840Y-3392D01*
X6854Y-3378D01*
X6868Y-3350D01*
X6868Y-3322D01*
X6854Y-3294D01*
X6840Y-3280D01*
X6811Y-3266D01*
X6755Y-3252D01*
X6727Y-3238D01*
X6713Y-3224D01*
X6699Y-3196D01*
X6699Y-3167D01*
X6713Y-3139D01*
X6727Y-3125D01*
X6755Y-3111D01*
X6825Y-3111D01*
X6868Y-3125D01*
X6994Y-3406D02*
X6994Y-3111D01*
X7106Y-3111D01*
X7135Y-3125D01*
X7149Y-3139D01*
X7163Y-3167D01*
X7163Y-3210D01*
X7149Y-3238D01*
X7135Y-3252D01*
X7106Y-3266D01*
X6994Y-3266D01*
X7261Y-3111D02*
X7444Y-3111D01*
X7345Y-3224D01*
X7387Y-3224D01*
X7415Y-3238D01*
X7430Y-3252D01*
X7444Y-3280D01*
X7444Y-3350D01*
X7430Y-3378D01*
X7415Y-3392D01*
X7387Y-3406D01*
X7303Y-3406D01*
X7275Y-3392D01*
X7261Y-3378D01*
X7696Y-3210D02*
X7696Y-3406D01*
X7626Y-3097D02*
X7556Y-3308D01*
X7739Y-3308D01*
X7893Y-3238D02*
X7865Y-3224D01*
X7851Y-3210D01*
X7837Y-3182D01*
X7837Y-3167D01*
X7851Y-3139D01*
X7865Y-3125D01*
X7893Y-3111D01*
X7949Y-3111D01*
X7977Y-3125D01*
X7991Y-3139D01*
X8005Y-3167D01*
X8005Y-3182D01*
X7991Y-3210D01*
X7977Y-3224D01*
X7949Y-3238D01*
X7893Y-3238D01*
X7865Y-3252D01*
X7851Y-3266D01*
X7837Y-3294D01*
X7837Y-3350D01*
X7851Y-3378D01*
X7865Y-3392D01*
X7893Y-3406D01*
X7949Y-3406D01*
X7977Y-3392D01*
X7991Y-3378D01*
X8005Y-3350D01*
X8005Y-3294D01*
X7991Y-3266D01*
X7977Y-3252D01*
X7949Y-3238D01*
X8286Y-3406D02*
X8118Y-3406D01*
X8202Y-3406D02*
X8202Y-3111D01*
X8174Y-3153D01*
X8146Y-3182D01*
X8118Y-3196D01*
X8581Y-3378D02*
X8567Y-3392D01*
X8525Y-3406D01*
X8497Y-3406D01*
X8455Y-3392D01*
X8427Y-3364D01*
X8413Y-3336D01*
X8399Y-3280D01*
X8399Y-3238D01*
X8413Y-3182D01*
X8427Y-3153D01*
X8455Y-3125D01*
X8497Y-3111D01*
X8525Y-3111D01*
X8567Y-3125D01*
X8581Y-3139D01*
X8708Y-3406D02*
X8708Y-3111D01*
X8876Y-3406D01*
X8876Y-3111D01*
M02*
