M48
;DRILL file {Pcbnew (2013-may-18)-stable} date Сб 10 янв 2015 17:31:16
;FORMAT={-:-/ absolute / metric / decimal}
FMAT,2
METRIC,TZ
T1C0.635
T2C0.813
%
G90
G05
M71
T1
X10.25Y-4.85
X10.25Y-19.25
X10.3Y-11.2
X10.3Y-25.6
X10.45Y-6.05
X10.45Y-20.45
X13.05Y-3.45
X13.05Y-17.85
X15.25Y-3.25
X15.25Y-17.65
X15.5Y-12.55
X15.5Y-26.95
X18.85Y-11.55
X18.85Y-25.95
X21.59Y-1.65
X21.59Y-16.05
X22.2Y-11.55
X22.2Y-25.95
X35.1Y-4.85
X35.1Y-19.25
X35.15Y-11.2
X35.15Y-25.6
X35.3Y-6.05
X35.3Y-20.45
X37.9Y-3.45
X37.9Y-17.85
X40.1Y-3.25
X40.1Y-17.65
X40.35Y-12.55
X40.35Y-26.95
X43.7Y-11.55
X43.7Y-25.95
X46.44Y-1.65
X46.44Y-16.05
X47.05Y-11.55
X47.05Y-25.95
T2
X16.51Y-1.65
X16.51Y-16.05
X21.59Y-1.65
X21.59Y-16.05
X41.36Y-1.65
X41.36Y-16.05
X46.44Y-1.65
X46.44Y-16.05
T0
M30
