G04 (created by PCBNEW (2013-may-18)-stable) date Сб 10 янв 2015 17:31:14*
%MOIN*%
G04 Gerber Fmt 3.4, Leading zero omitted, Abs format*
%FSLAX34Y34*%
G01*
G70*
G90*
G04 APERTURE LIST*
%ADD10C,0.00590551*%
%ADD11R,0.025X0.05*%
%ADD12C,0.055*%
%ADD13O,0.0098X0.0394*%
%ADD14O,0.0394X0.0098*%
%ADD15R,0.1181X0.1181*%
%ADD16C,0.0433*%
%ADD17R,0.035X0.055*%
%ADD18R,0.06X0.08*%
%ADD19R,0.0906X0.0197*%
%ADD20R,0.0984X0.0787*%
%ADD21C,0.035*%
%ADD22C,0.01*%
%ADD23C,0.019685*%
%ADD24C,0.0590551*%
G04 APERTURE END LIST*
G54D10*
G54D11*
X7301Y-9466D03*
X7801Y-9466D03*
X8301Y-9466D03*
X8801Y-9466D03*
X8801Y-7266D03*
X8301Y-7266D03*
X7801Y-7266D03*
X7301Y-7266D03*
G54D12*
X8500Y-6318D03*
X6500Y-6318D03*
G54D13*
X6201Y-7460D03*
X6004Y-7460D03*
X5807Y-7460D03*
X5610Y-7460D03*
X5413Y-7460D03*
X5216Y-7460D03*
X5019Y-7460D03*
G54D14*
X4626Y-7853D03*
X4626Y-8050D03*
X4626Y-8247D03*
X4626Y-8444D03*
X4626Y-8641D03*
X4626Y-8838D03*
X4626Y-9035D03*
G54D13*
X5019Y-9428D03*
X5216Y-9428D03*
X5413Y-9428D03*
X5610Y-9428D03*
X5807Y-9428D03*
X6004Y-9428D03*
X6201Y-9428D03*
G54D14*
X6594Y-9035D03*
X6594Y-8838D03*
X6594Y-8641D03*
X6594Y-8444D03*
X6594Y-8247D03*
X6594Y-8050D03*
X6594Y-7853D03*
G54D15*
X5610Y-8444D03*
G54D16*
X5310Y-8744D03*
X5610Y-8444D03*
X5910Y-8144D03*
X5310Y-8144D03*
X5910Y-8744D03*
G54D17*
X4900Y-10433D03*
X5650Y-10433D03*
G54D18*
X8031Y-10275D03*
X6731Y-10275D03*
G54D19*
X3254Y-7590D03*
X3254Y-7905D03*
X3254Y-8220D03*
X3254Y-8535D03*
X3254Y-8850D03*
G54D20*
X3215Y-6468D03*
X1050Y-6468D03*
X3215Y-9972D03*
X1050Y-9972D03*
G54D19*
X13037Y-7590D03*
X13037Y-7905D03*
X13037Y-8220D03*
X13037Y-8535D03*
X13037Y-8850D03*
G54D20*
X12998Y-6468D03*
X10833Y-6468D03*
X12998Y-9972D03*
X10833Y-9972D03*
G54D18*
X17815Y-10275D03*
X16515Y-10275D03*
G54D17*
X14684Y-10433D03*
X15434Y-10433D03*
G54D13*
X15984Y-7460D03*
X15787Y-7460D03*
X15590Y-7460D03*
X15393Y-7460D03*
X15196Y-7460D03*
X14999Y-7460D03*
X14802Y-7460D03*
G54D14*
X14409Y-7853D03*
X14409Y-8050D03*
X14409Y-8247D03*
X14409Y-8444D03*
X14409Y-8641D03*
X14409Y-8838D03*
X14409Y-9035D03*
G54D13*
X14802Y-9428D03*
X14999Y-9428D03*
X15196Y-9428D03*
X15393Y-9428D03*
X15590Y-9428D03*
X15787Y-9428D03*
X15984Y-9428D03*
G54D14*
X16377Y-9035D03*
X16377Y-8838D03*
X16377Y-8641D03*
X16377Y-8444D03*
X16377Y-8247D03*
X16377Y-8050D03*
X16377Y-7853D03*
G54D15*
X15393Y-8444D03*
G54D16*
X15093Y-8744D03*
X15393Y-8444D03*
X15693Y-8144D03*
X15093Y-8144D03*
X15693Y-8744D03*
G54D12*
X18283Y-6318D03*
X16283Y-6318D03*
G54D11*
X17084Y-9466D03*
X17584Y-9466D03*
X18084Y-9466D03*
X18584Y-9466D03*
X18584Y-7266D03*
X18084Y-7266D03*
X17584Y-7266D03*
X17084Y-7266D03*
X17084Y-3796D03*
X17584Y-3796D03*
X18084Y-3796D03*
X18584Y-3796D03*
X18584Y-1596D03*
X18084Y-1596D03*
X17584Y-1596D03*
X17084Y-1596D03*
G54D12*
X18283Y-649D03*
X16283Y-649D03*
G54D13*
X15984Y-1791D03*
X15787Y-1791D03*
X15590Y-1791D03*
X15393Y-1791D03*
X15196Y-1791D03*
X14999Y-1791D03*
X14802Y-1791D03*
G54D14*
X14409Y-2184D03*
X14409Y-2381D03*
X14409Y-2578D03*
X14409Y-2775D03*
X14409Y-2972D03*
X14409Y-3169D03*
X14409Y-3366D03*
G54D13*
X14802Y-3759D03*
X14999Y-3759D03*
X15196Y-3759D03*
X15393Y-3759D03*
X15590Y-3759D03*
X15787Y-3759D03*
X15984Y-3759D03*
G54D14*
X16377Y-3366D03*
X16377Y-3169D03*
X16377Y-2972D03*
X16377Y-2775D03*
X16377Y-2578D03*
X16377Y-2381D03*
X16377Y-2184D03*
G54D15*
X15393Y-2775D03*
G54D16*
X15093Y-3075D03*
X15393Y-2775D03*
X15693Y-2475D03*
X15093Y-2475D03*
X15693Y-3075D03*
G54D17*
X14684Y-4763D03*
X15434Y-4763D03*
G54D18*
X17815Y-4606D03*
X16515Y-4606D03*
G54D19*
X13037Y-1920D03*
X13037Y-2235D03*
X13037Y-2550D03*
X13037Y-2865D03*
X13037Y-3180D03*
G54D20*
X12998Y-798D03*
X10833Y-798D03*
X12998Y-4302D03*
X10833Y-4302D03*
G54D19*
X3254Y-1920D03*
X3254Y-2235D03*
X3254Y-2550D03*
X3254Y-2865D03*
X3254Y-3180D03*
G54D20*
X3215Y-798D03*
X1050Y-798D03*
X3215Y-4302D03*
X1050Y-4302D03*
G54D18*
X8031Y-4606D03*
X6731Y-4606D03*
G54D17*
X4900Y-4763D03*
X5650Y-4763D03*
G54D13*
X6201Y-1791D03*
X6004Y-1791D03*
X5807Y-1791D03*
X5610Y-1791D03*
X5413Y-1791D03*
X5216Y-1791D03*
X5019Y-1791D03*
G54D14*
X4626Y-2184D03*
X4626Y-2381D03*
X4626Y-2578D03*
X4626Y-2775D03*
X4626Y-2972D03*
X4626Y-3169D03*
X4626Y-3366D03*
G54D13*
X5019Y-3759D03*
X5216Y-3759D03*
X5413Y-3759D03*
X5610Y-3759D03*
X5807Y-3759D03*
X6004Y-3759D03*
X6201Y-3759D03*
G54D14*
X6594Y-3366D03*
X6594Y-3169D03*
X6594Y-2972D03*
X6594Y-2775D03*
X6594Y-2578D03*
X6594Y-2381D03*
X6594Y-2184D03*
G54D15*
X5610Y-2775D03*
G54D16*
X5310Y-3075D03*
X5610Y-2775D03*
X5910Y-2475D03*
X5310Y-2475D03*
X5910Y-3075D03*
G54D12*
X8500Y-649D03*
X6500Y-649D03*
G54D11*
X7301Y-3796D03*
X7801Y-3796D03*
X8301Y-3796D03*
X8801Y-3796D03*
X8801Y-1596D03*
X8301Y-1596D03*
X7801Y-1596D03*
X7301Y-1596D03*
G54D21*
X6102Y-10610D03*
X4035Y-7578D03*
X13818Y-7578D03*
X15885Y-10610D03*
X15885Y-4940D03*
X13818Y-1909D03*
X4035Y-1909D03*
X6102Y-4940D03*
X5137Y-7027D03*
X14921Y-7027D03*
X14921Y-1358D03*
X5137Y-1358D03*
X6003Y-6948D03*
X4055Y-10078D03*
X13838Y-10078D03*
X15787Y-6948D03*
X15787Y-1279D03*
X13838Y-4409D03*
X4055Y-4409D03*
X6003Y-1279D03*
X4114Y-8051D03*
X13897Y-8051D03*
X13897Y-2381D03*
X4114Y-2381D03*
X8500Y-6318D03*
X18283Y-6318D03*
X18283Y-649D03*
X8500Y-649D03*
X7421Y-10216D03*
X8740Y-10216D03*
X18523Y-10216D03*
X17204Y-10216D03*
X17204Y-4547D03*
X18523Y-4547D03*
X8740Y-4547D03*
X7421Y-4547D03*
G54D22*
X2787Y-8220D02*
X2539Y-7972D01*
X2539Y-7972D02*
X2539Y-7342D01*
X2539Y-7342D02*
X2854Y-7027D01*
X2854Y-7027D02*
X4507Y-7027D01*
X4507Y-7027D02*
X4980Y-6555D01*
X4980Y-6555D02*
X5374Y-6555D01*
X5374Y-6555D02*
X5610Y-6791D01*
X5610Y-6791D02*
X5610Y-7460D01*
X3254Y-8220D02*
X2787Y-8220D01*
X13037Y-8220D02*
X12570Y-8220D01*
X15393Y-6791D02*
X15393Y-7460D01*
X15157Y-6555D02*
X15393Y-6791D01*
X14763Y-6555D02*
X15157Y-6555D01*
X14291Y-7027D02*
X14763Y-6555D01*
X12637Y-7027D02*
X14291Y-7027D01*
X12322Y-7342D02*
X12637Y-7027D01*
X12322Y-7972D02*
X12322Y-7342D01*
X12570Y-8220D02*
X12322Y-7972D01*
X12570Y-2550D02*
X12322Y-2303D01*
X12322Y-2303D02*
X12322Y-1673D01*
X12322Y-1673D02*
X12637Y-1358D01*
X12637Y-1358D02*
X14291Y-1358D01*
X14291Y-1358D02*
X14763Y-885D01*
X14763Y-885D02*
X15157Y-885D01*
X15157Y-885D02*
X15393Y-1122D01*
X15393Y-1122D02*
X15393Y-1791D01*
X13037Y-2550D02*
X12570Y-2550D01*
X3254Y-2550D02*
X2787Y-2550D01*
X5610Y-1122D02*
X5610Y-1791D01*
X5374Y-885D02*
X5610Y-1122D01*
X4980Y-885D02*
X5374Y-885D01*
X4507Y-1358D02*
X4980Y-885D01*
X2854Y-1358D02*
X4507Y-1358D01*
X2539Y-1673D02*
X2854Y-1358D01*
X2539Y-2303D02*
X2539Y-1673D01*
X2787Y-2550D02*
X2539Y-2303D01*
X2786Y-7905D02*
X2696Y-7814D01*
X2696Y-7814D02*
X2696Y-7421D01*
X2696Y-7421D02*
X2933Y-7185D01*
X2933Y-7185D02*
X4586Y-7185D01*
X4586Y-7185D02*
X5059Y-6712D01*
X5059Y-6712D02*
X5295Y-6712D01*
X5295Y-6712D02*
X5413Y-6830D01*
X5413Y-6830D02*
X5413Y-7460D01*
X3254Y-7905D02*
X2786Y-7905D01*
X13037Y-7905D02*
X12570Y-7905D01*
X15196Y-6830D02*
X15196Y-7460D01*
X15078Y-6712D02*
X15196Y-6830D01*
X14842Y-6712D02*
X15078Y-6712D01*
X14370Y-7185D02*
X14842Y-6712D01*
X12716Y-7185D02*
X14370Y-7185D01*
X12480Y-7421D02*
X12716Y-7185D01*
X12480Y-7814D02*
X12480Y-7421D01*
X12570Y-7905D02*
X12480Y-7814D01*
X12570Y-2235D02*
X12480Y-2145D01*
X12480Y-2145D02*
X12480Y-1751D01*
X12480Y-1751D02*
X12716Y-1515D01*
X12716Y-1515D02*
X14370Y-1515D01*
X14370Y-1515D02*
X14842Y-1043D01*
X14842Y-1043D02*
X15078Y-1043D01*
X15078Y-1043D02*
X15196Y-1161D01*
X15196Y-1161D02*
X15196Y-1791D01*
X13037Y-2235D02*
X12570Y-2235D01*
X3254Y-2235D02*
X2786Y-2235D01*
X5413Y-1161D02*
X5413Y-1791D01*
X5295Y-1043D02*
X5413Y-1161D01*
X5059Y-1043D02*
X5295Y-1043D01*
X4586Y-1515D02*
X5059Y-1043D01*
X2933Y-1515D02*
X4586Y-1515D01*
X2696Y-1751D02*
X2933Y-1515D01*
X2696Y-2145D02*
X2696Y-1751D01*
X2786Y-2235D02*
X2696Y-2145D01*
X7106Y-8444D02*
X7301Y-8639D01*
X7301Y-8639D02*
X7301Y-9466D01*
X6594Y-8444D02*
X7106Y-8444D01*
X16377Y-8444D02*
X16889Y-8444D01*
X17084Y-8639D02*
X17084Y-9466D01*
X16889Y-8444D02*
X17084Y-8639D01*
X16889Y-2775D02*
X17084Y-2970D01*
X17084Y-2970D02*
X17084Y-3796D01*
X16377Y-2775D02*
X16889Y-2775D01*
X6594Y-2775D02*
X7106Y-2775D01*
X7301Y-2970D02*
X7301Y-3796D01*
X7106Y-2775D02*
X7301Y-2970D01*
X4310Y-7853D02*
X4035Y-7578D01*
X4626Y-7853D02*
X4310Y-7853D01*
X5019Y-7460D02*
X4626Y-7853D01*
G54D23*
X6102Y-10610D02*
X5925Y-10433D01*
X5925Y-10433D02*
X5650Y-10433D01*
X6437Y-10275D02*
X6102Y-10610D01*
X6731Y-10275D02*
X6437Y-10275D01*
X6102Y-10354D02*
X5925Y-10177D01*
X6102Y-10610D02*
X6102Y-10354D01*
G54D22*
X4024Y-7590D02*
X4035Y-7578D01*
X3254Y-7590D02*
X4024Y-7590D01*
X13037Y-7590D02*
X13807Y-7590D01*
X13807Y-7590D02*
X13818Y-7578D01*
G54D23*
X15885Y-10610D02*
X15885Y-10354D01*
X15885Y-10354D02*
X15708Y-10177D01*
X16515Y-10275D02*
X16220Y-10275D01*
X16220Y-10275D02*
X15885Y-10610D01*
X15708Y-10433D02*
X15434Y-10433D01*
X15885Y-10610D02*
X15708Y-10433D01*
G54D22*
X14802Y-7460D02*
X14409Y-7853D01*
X14409Y-7853D02*
X14094Y-7853D01*
X14094Y-7853D02*
X13818Y-7578D01*
X14094Y-2184D02*
X13818Y-1909D01*
X14409Y-2184D02*
X14094Y-2184D01*
X14802Y-1791D02*
X14409Y-2184D01*
G54D23*
X15885Y-4940D02*
X15708Y-4763D01*
X15708Y-4763D02*
X15434Y-4763D01*
X16220Y-4606D02*
X15885Y-4940D01*
X16515Y-4606D02*
X16220Y-4606D01*
X15885Y-4685D02*
X15708Y-4507D01*
X15885Y-4940D02*
X15885Y-4685D01*
G54D22*
X13807Y-1920D02*
X13818Y-1909D01*
X13037Y-1920D02*
X13807Y-1920D01*
X3254Y-1920D02*
X4024Y-1920D01*
X4024Y-1920D02*
X4035Y-1909D01*
G54D23*
X6102Y-4940D02*
X6102Y-4685D01*
X6102Y-4685D02*
X5925Y-4507D01*
X6731Y-4606D02*
X6437Y-4606D01*
X6437Y-4606D02*
X6102Y-4940D01*
X5925Y-4763D02*
X5650Y-4763D01*
X6102Y-4940D02*
X5925Y-4763D01*
G54D22*
X5019Y-1791D02*
X4626Y-2184D01*
X4626Y-2184D02*
X4310Y-2184D01*
X4310Y-2184D02*
X4035Y-1909D01*
X5216Y-7106D02*
X5137Y-7027D01*
X5216Y-7460D02*
X5216Y-7106D01*
X14999Y-7460D02*
X14999Y-7106D01*
X14999Y-7106D02*
X14921Y-7027D01*
X14999Y-1436D02*
X14921Y-1358D01*
X14999Y-1791D02*
X14999Y-1436D01*
X5216Y-1791D02*
X5216Y-1436D01*
X5216Y-1436D02*
X5137Y-1358D01*
X5807Y-7145D02*
X6003Y-6948D01*
X5807Y-7460D02*
X5807Y-7145D01*
G54D23*
X4389Y-10433D02*
X4015Y-10059D01*
X4015Y-9980D02*
X4015Y-9015D01*
X4015Y-10059D02*
X4015Y-9980D01*
X4015Y-9015D02*
X3850Y-8850D01*
X3850Y-8850D02*
X3254Y-8850D01*
X4900Y-10433D02*
X4389Y-10433D01*
X4055Y-10078D02*
X4015Y-10039D01*
X4015Y-10039D02*
X4015Y-9980D01*
G54D22*
X6515Y-6948D02*
X6870Y-7303D01*
X6870Y-7303D02*
X6870Y-7618D01*
X6870Y-7618D02*
X7106Y-7854D01*
X7106Y-7854D02*
X8720Y-7854D01*
X8720Y-7854D02*
X8801Y-7773D01*
X8801Y-7773D02*
X8801Y-7266D01*
X6003Y-6948D02*
X6515Y-6948D01*
X15787Y-6948D02*
X16299Y-6948D01*
X18584Y-7773D02*
X18584Y-7266D01*
X18503Y-7854D02*
X18584Y-7773D01*
X16889Y-7854D02*
X18503Y-7854D01*
X16653Y-7618D02*
X16889Y-7854D01*
X16653Y-7303D02*
X16653Y-7618D01*
X16299Y-6948D02*
X16653Y-7303D01*
G54D23*
X13799Y-10039D02*
X13799Y-9980D01*
X13838Y-10078D02*
X13799Y-10039D01*
X14684Y-10433D02*
X14173Y-10433D01*
X13633Y-8850D02*
X13037Y-8850D01*
X13799Y-9015D02*
X13633Y-8850D01*
X13799Y-10059D02*
X13799Y-9980D01*
X13799Y-9980D02*
X13799Y-9015D01*
X14173Y-10433D02*
X13799Y-10059D01*
G54D22*
X15590Y-7460D02*
X15590Y-7145D01*
X15590Y-7145D02*
X15787Y-6948D01*
X15590Y-1476D02*
X15787Y-1279D01*
X15590Y-1791D02*
X15590Y-1476D01*
G54D23*
X14173Y-4763D02*
X13799Y-4389D01*
X13799Y-4311D02*
X13799Y-3346D01*
X13799Y-4389D02*
X13799Y-4311D01*
X13799Y-3346D02*
X13633Y-3180D01*
X13633Y-3180D02*
X13037Y-3180D01*
X14684Y-4763D02*
X14173Y-4763D01*
X13838Y-4409D02*
X13799Y-4370D01*
X13799Y-4370D02*
X13799Y-4311D01*
G54D22*
X16299Y-1279D02*
X16653Y-1633D01*
X16653Y-1633D02*
X16653Y-1948D01*
X16653Y-1948D02*
X16889Y-2185D01*
X16889Y-2185D02*
X18503Y-2185D01*
X18503Y-2185D02*
X18584Y-2104D01*
X18584Y-2104D02*
X18584Y-1596D01*
X15787Y-1279D02*
X16299Y-1279D01*
X6003Y-1279D02*
X6515Y-1279D01*
X8801Y-2104D02*
X8801Y-1596D01*
X8720Y-2185D02*
X8801Y-2104D01*
X7106Y-2185D02*
X8720Y-2185D01*
X6870Y-1948D02*
X7106Y-2185D01*
X6870Y-1633D02*
X6870Y-1948D01*
X6515Y-1279D02*
X6870Y-1633D01*
G54D23*
X4015Y-4370D02*
X4015Y-4311D01*
X4055Y-4409D02*
X4015Y-4370D01*
X4900Y-4763D02*
X4389Y-4763D01*
X3850Y-3180D02*
X3254Y-3180D01*
X4015Y-3346D02*
X3850Y-3180D01*
X4015Y-4389D02*
X4015Y-4311D01*
X4015Y-4311D02*
X4015Y-3346D01*
X4389Y-4763D02*
X4015Y-4389D01*
G54D22*
X5807Y-1791D02*
X5807Y-1476D01*
X5807Y-1476D02*
X6003Y-1279D01*
X4114Y-8050D02*
X4114Y-8051D01*
X4626Y-8050D02*
X4114Y-8050D01*
X14409Y-8050D02*
X13897Y-8050D01*
X13897Y-8050D02*
X13897Y-8051D01*
X13897Y-2381D02*
X13897Y-2381D01*
X14409Y-2381D02*
X13897Y-2381D01*
X4626Y-2381D02*
X4114Y-2381D01*
X4114Y-2381D02*
X4114Y-2381D01*
X7801Y-9074D02*
X7801Y-9466D01*
X8301Y-9167D02*
X8208Y-9074D01*
X8051Y-9074D02*
X7801Y-9074D01*
X8208Y-9074D02*
X8051Y-9074D01*
X8301Y-9466D02*
X8301Y-9167D01*
G54D23*
X7801Y-10044D02*
X8031Y-10275D01*
X7801Y-9466D02*
X7801Y-10044D01*
X8301Y-10006D02*
X8031Y-10275D01*
X8301Y-9466D02*
X8301Y-10006D01*
G54D22*
X6810Y-7853D02*
X6968Y-8011D01*
X6968Y-8011D02*
X7893Y-8011D01*
X7893Y-8011D02*
X8051Y-8169D01*
X8051Y-8169D02*
X8051Y-9074D01*
X6594Y-7853D02*
X6810Y-7853D01*
X16377Y-7853D02*
X16594Y-7853D01*
X17834Y-8169D02*
X17834Y-9074D01*
X17677Y-8011D02*
X17834Y-8169D01*
X16751Y-8011D02*
X17677Y-8011D01*
X16594Y-7853D02*
X16751Y-8011D01*
G54D23*
X18084Y-9466D02*
X18084Y-10006D01*
X18084Y-10006D02*
X17815Y-10275D01*
X17584Y-9466D02*
X17584Y-10044D01*
X17584Y-10044D02*
X17815Y-10275D01*
G54D22*
X18084Y-9466D02*
X18084Y-9167D01*
X17992Y-9074D02*
X17834Y-9074D01*
X17834Y-9074D02*
X17584Y-9074D01*
X18084Y-9167D02*
X17992Y-9074D01*
X17584Y-9074D02*
X17584Y-9466D01*
X17584Y-3405D02*
X17584Y-3796D01*
X18084Y-3498D02*
X17992Y-3405D01*
X17834Y-3405D02*
X17584Y-3405D01*
X17992Y-3405D02*
X17834Y-3405D01*
X18084Y-3796D02*
X18084Y-3498D01*
G54D23*
X17584Y-4375D02*
X17815Y-4606D01*
X17584Y-3796D02*
X17584Y-4375D01*
X18084Y-4337D02*
X17815Y-4606D01*
X18084Y-3796D02*
X18084Y-4337D01*
G54D22*
X16594Y-2184D02*
X16751Y-2342D01*
X16751Y-2342D02*
X17677Y-2342D01*
X17677Y-2342D02*
X17834Y-2500D01*
X17834Y-2500D02*
X17834Y-3405D01*
X16377Y-2184D02*
X16594Y-2184D01*
X6594Y-2184D02*
X6810Y-2184D01*
X8051Y-2500D02*
X8051Y-3405D01*
X7893Y-2342D02*
X8051Y-2500D01*
X6968Y-2342D02*
X7893Y-2342D01*
X6810Y-2184D02*
X6968Y-2342D01*
G54D23*
X8301Y-3796D02*
X8301Y-4337D01*
X8301Y-4337D02*
X8031Y-4606D01*
X7801Y-3796D02*
X7801Y-4375D01*
X7801Y-4375D02*
X8031Y-4606D01*
G54D22*
X8301Y-3796D02*
X8301Y-3498D01*
X8208Y-3405D02*
X8051Y-3405D01*
X8051Y-3405D02*
X7801Y-3405D01*
X8301Y-3498D02*
X8208Y-3405D01*
X7801Y-3405D02*
X7801Y-3796D01*
G54D24*
X1050Y-6468D02*
X1050Y-9972D01*
X1050Y-9972D02*
X3215Y-9972D01*
X3215Y-6468D02*
X1050Y-6468D01*
X12998Y-6468D02*
X10833Y-6468D01*
X10833Y-9972D02*
X12998Y-9972D01*
X10833Y-6468D02*
X10833Y-9972D01*
X10833Y-798D02*
X10833Y-4302D01*
X10833Y-4302D02*
X12998Y-4302D01*
X12998Y-798D02*
X10833Y-798D01*
X3215Y-798D02*
X1050Y-798D01*
X1050Y-4302D02*
X3215Y-4302D01*
X1050Y-798D02*
X1050Y-4302D01*
G54D22*
X8301Y-6517D02*
X8500Y-6318D01*
X8301Y-7266D02*
X8301Y-6517D01*
G54D24*
X8188Y-6318D02*
X8169Y-6299D01*
X8500Y-6318D02*
X8188Y-6318D01*
X18283Y-6318D02*
X17972Y-6318D01*
X17972Y-6318D02*
X17952Y-6299D01*
G54D22*
X18084Y-7266D02*
X18084Y-6517D01*
X18084Y-6517D02*
X18283Y-6318D01*
X18084Y-848D02*
X18283Y-649D01*
X18084Y-1596D02*
X18084Y-848D01*
G54D24*
X17972Y-649D02*
X17952Y-629D01*
X18283Y-649D02*
X17972Y-649D01*
X8500Y-649D02*
X8188Y-649D01*
X8188Y-649D02*
X8169Y-629D01*
G54D22*
X8301Y-1596D02*
X8301Y-848D01*
X8301Y-848D02*
X8500Y-649D01*
X7801Y-6935D02*
X7185Y-6318D01*
X7801Y-7266D02*
X7801Y-6935D01*
G54D24*
X6500Y-6318D02*
X7185Y-6318D01*
X16283Y-6318D02*
X16968Y-6318D01*
G54D22*
X17584Y-7266D02*
X17584Y-6935D01*
X17584Y-6935D02*
X16968Y-6318D01*
X17584Y-1265D02*
X16968Y-649D01*
X17584Y-1596D02*
X17584Y-1265D01*
G54D24*
X16283Y-649D02*
X16968Y-649D01*
X6500Y-649D02*
X7185Y-649D01*
G54D22*
X7801Y-1596D02*
X7801Y-1265D01*
X7801Y-1265D02*
X7185Y-649D01*
X7184Y-8247D02*
X7539Y-8602D01*
X7539Y-8602D02*
X7539Y-10019D01*
X7539Y-10019D02*
X7421Y-10137D01*
X7421Y-10137D02*
X7421Y-10216D01*
X8740Y-10216D02*
X8801Y-10155D01*
X8801Y-10155D02*
X8801Y-9466D01*
X6594Y-8247D02*
X7184Y-8247D01*
X16377Y-8247D02*
X16968Y-8247D01*
X18584Y-10155D02*
X18584Y-9466D01*
X18523Y-10216D02*
X18584Y-10155D01*
X17204Y-10137D02*
X17204Y-10216D01*
X17322Y-10019D02*
X17204Y-10137D01*
X17322Y-8602D02*
X17322Y-10019D01*
X16968Y-8247D02*
X17322Y-8602D01*
X16968Y-2578D02*
X17322Y-2933D01*
X17322Y-2933D02*
X17322Y-4350D01*
X17322Y-4350D02*
X17204Y-4468D01*
X17204Y-4468D02*
X17204Y-4547D01*
X18523Y-4547D02*
X18584Y-4486D01*
X18584Y-4486D02*
X18584Y-3796D01*
X16377Y-2578D02*
X16968Y-2578D01*
X6594Y-2578D02*
X7184Y-2578D01*
X8801Y-4486D02*
X8801Y-3796D01*
X8740Y-4547D02*
X8801Y-4486D01*
X7421Y-4468D02*
X7421Y-4547D01*
X7539Y-4350D02*
X7421Y-4468D01*
X7539Y-2933D02*
X7539Y-4350D01*
X7184Y-2578D02*
X7539Y-2933D01*
M02*
