G04 (created by PCBNEW (2013-may-18)-stable) date Сб 10 янв 2015 17:31:14*
%MOIN*%
G04 Gerber Fmt 3.4, Leading zero omitted, Abs format*
%FSLAX34Y34*%
G01*
G70*
G90*
G04 APERTURE LIST*
%ADD10C,0.00590551*%
%ADD11R,0.08X0.06*%
%ADD12C,0.055*%
%ADD13C,0.0433*%
%ADD14R,0.035X0.055*%
%ADD15R,0.05X0.1*%
%ADD16C,0.0354*%
G04 APERTURE END LIST*
G54D10*
G54D11*
X3248Y-7992D03*
X3248Y-6692D03*
G54D12*
X8500Y-6318D03*
X6500Y-6318D03*
G54D13*
X5310Y-8744D03*
X5610Y-8444D03*
X5910Y-8144D03*
X5310Y-8144D03*
X5910Y-8744D03*
G54D14*
X4605Y-6476D03*
X5355Y-6476D03*
G54D11*
X7480Y-7322D03*
X7480Y-8622D03*
X8562Y-8622D03*
X8562Y-7322D03*
G54D15*
X4675Y-10196D03*
X5875Y-10196D03*
G54D16*
X2231Y-7354D03*
X2231Y-9086D03*
X12014Y-7354D03*
X12014Y-9086D03*
G54D15*
X14459Y-10196D03*
X15659Y-10196D03*
G54D11*
X18346Y-8622D03*
X18346Y-7322D03*
X17263Y-7322D03*
X17263Y-8622D03*
G54D14*
X14388Y-6476D03*
X15138Y-6476D03*
G54D13*
X15093Y-8744D03*
X15393Y-8444D03*
X15693Y-8144D03*
X15093Y-8144D03*
X15693Y-8744D03*
G54D12*
X18283Y-6318D03*
X16283Y-6318D03*
G54D11*
X13031Y-7992D03*
X13031Y-6692D03*
X13031Y-2323D03*
X13031Y-1023D03*
G54D12*
X18283Y-649D03*
X16283Y-649D03*
G54D13*
X15093Y-3075D03*
X15393Y-2775D03*
X15693Y-2475D03*
X15093Y-2475D03*
X15693Y-3075D03*
G54D14*
X14388Y-807D03*
X15138Y-807D03*
G54D11*
X17263Y-1653D03*
X17263Y-2953D03*
X18346Y-2953D03*
X18346Y-1653D03*
G54D15*
X14459Y-4527D03*
X15659Y-4527D03*
G54D16*
X12014Y-1684D03*
X12014Y-3416D03*
X2231Y-1684D03*
X2231Y-3416D03*
G54D15*
X4675Y-4527D03*
X5875Y-4527D03*
G54D11*
X8562Y-2953D03*
X8562Y-1653D03*
X7480Y-1653D03*
X7480Y-2953D03*
G54D14*
X4605Y-807D03*
X5355Y-807D03*
G54D13*
X5310Y-3075D03*
X5610Y-2775D03*
X5910Y-2475D03*
X5310Y-2475D03*
X5910Y-3075D03*
G54D12*
X8500Y-649D03*
X6500Y-649D03*
G54D11*
X3248Y-2323D03*
X3248Y-1023D03*
M02*
