G04 (created by PCBNEW (2013-may-18)-stable) date Сб 10 янв 2015 20:32:16*
%MOIN*%
G04 Gerber Fmt 3.4, Leading zero omitted, Abs format*
%FSLAX34Y34*%
G01*
G70*
G90*
G04 APERTURE LIST*
%ADD10C,0.00590551*%
%ADD11R,0.055X0.055*%
%ADD12C,0.055*%
%ADD13R,0.05X0.02*%
%ADD14R,0.025X0.05*%
%ADD15R,0.0472X0.0472*%
%ADD16R,0.06X0.08*%
%ADD17R,0.08X0.06*%
%ADD18R,0.0177X0.0787*%
%ADD19R,0.0787X0.0177*%
G04 APERTURE END LIST*
G54D10*
G54D11*
X14011Y-10078D03*
G54D12*
X15011Y-10078D03*
X16011Y-10078D03*
X17011Y-10078D03*
G54D13*
X3178Y-12021D03*
X3178Y-12521D03*
X3178Y-13021D03*
X3178Y-13521D03*
X3178Y-14021D03*
X3178Y-14521D03*
X3178Y-15021D03*
X3178Y-15521D03*
X6978Y-15517D03*
X6978Y-15017D03*
X6978Y-14517D03*
X6978Y-14017D03*
X6978Y-13517D03*
X6978Y-13017D03*
X6978Y-12517D03*
X6978Y-12017D03*
X6978Y-11517D03*
X3179Y-11509D03*
G54D11*
X669Y-10161D03*
G54D12*
X669Y-11161D03*
X669Y-12161D03*
X669Y-13161D03*
X669Y-14161D03*
X669Y-15161D03*
X669Y-16161D03*
X669Y-17161D03*
G54D11*
X1692Y-17161D03*
G54D12*
X1692Y-16161D03*
X1692Y-15161D03*
X1692Y-14161D03*
X1692Y-13161D03*
X1692Y-12161D03*
X1692Y-11161D03*
X1692Y-10161D03*
G54D14*
X14013Y-15430D03*
X14513Y-15430D03*
X15013Y-15430D03*
X15513Y-15430D03*
X15513Y-13230D03*
X15013Y-13230D03*
X14513Y-13230D03*
X14013Y-13230D03*
G54D12*
X16850Y-13330D03*
X16850Y-15330D03*
X4157Y-10000D03*
X6157Y-10000D03*
G54D15*
X11042Y-16929D03*
X10216Y-16929D03*
G54D11*
X11893Y-10039D03*
G54D12*
X10893Y-10039D03*
X9893Y-10039D03*
X8893Y-10039D03*
G54D16*
X14113Y-17047D03*
X15413Y-17047D03*
X15531Y-12086D03*
X14231Y-12086D03*
G54D17*
X12913Y-17224D03*
X12913Y-15924D03*
G54D16*
X8484Y-16732D03*
X7184Y-16732D03*
X8405Y-11141D03*
X9705Y-11141D03*
G54D18*
X9379Y-12237D03*
X9694Y-12237D03*
X10009Y-12237D03*
X10324Y-12237D03*
X10639Y-12237D03*
X10954Y-12237D03*
X11269Y-12237D03*
X11584Y-12237D03*
X11582Y-16003D03*
X9372Y-16003D03*
X9692Y-16003D03*
X10012Y-16003D03*
X10322Y-16003D03*
X10642Y-16003D03*
X10952Y-16003D03*
X11272Y-16003D03*
G54D19*
X12372Y-13021D03*
X12372Y-13335D03*
X12372Y-13651D03*
X12372Y-13965D03*
X12372Y-14281D03*
X12372Y-14595D03*
X12372Y-14911D03*
X12372Y-15225D03*
X8592Y-13023D03*
X8592Y-13333D03*
X8592Y-13653D03*
X8592Y-13963D03*
X8592Y-14273D03*
X8592Y-14593D03*
X8592Y-14913D03*
X8592Y-15233D03*
G54D18*
X9379Y-3261D03*
X9694Y-3261D03*
X10009Y-3261D03*
X10324Y-3261D03*
X10639Y-3261D03*
X10954Y-3261D03*
X11269Y-3261D03*
X11584Y-3261D03*
X11582Y-7027D03*
X9372Y-7027D03*
X9692Y-7027D03*
X10012Y-7027D03*
X10322Y-7027D03*
X10642Y-7027D03*
X10952Y-7027D03*
X11272Y-7027D03*
G54D19*
X12372Y-4045D03*
X12372Y-4359D03*
X12372Y-4675D03*
X12372Y-4989D03*
X12372Y-5305D03*
X12372Y-5619D03*
X12372Y-5935D03*
X12372Y-6249D03*
X8592Y-4047D03*
X8592Y-4357D03*
X8592Y-4677D03*
X8592Y-4987D03*
X8592Y-5297D03*
X8592Y-5617D03*
X8592Y-5937D03*
X8592Y-6257D03*
G54D16*
X8405Y-2165D03*
X9705Y-2165D03*
X8484Y-7755D03*
X7184Y-7755D03*
G54D17*
X12913Y-8248D03*
X12913Y-6948D03*
G54D16*
X15531Y-3110D03*
X14231Y-3110D03*
X14113Y-8070D03*
X15413Y-8070D03*
G54D11*
X11893Y-1062D03*
G54D12*
X10893Y-1062D03*
X9893Y-1062D03*
X8893Y-1062D03*
G54D15*
X11042Y-7952D03*
X10216Y-7952D03*
G54D12*
X4157Y-1023D03*
X6157Y-1023D03*
X16850Y-4354D03*
X16850Y-6354D03*
G54D14*
X14013Y-6454D03*
X14513Y-6454D03*
X15013Y-6454D03*
X15513Y-6454D03*
X15513Y-4254D03*
X15013Y-4254D03*
X14513Y-4254D03*
X14013Y-4254D03*
G54D11*
X1692Y-8185D03*
G54D12*
X1692Y-7185D03*
X1692Y-6185D03*
X1692Y-5185D03*
X1692Y-4185D03*
X1692Y-3185D03*
X1692Y-2185D03*
X1692Y-1185D03*
G54D11*
X669Y-1185D03*
G54D12*
X669Y-2185D03*
X669Y-3185D03*
X669Y-4185D03*
X669Y-5185D03*
X669Y-6185D03*
X669Y-7185D03*
X669Y-8185D03*
G54D13*
X3178Y-3045D03*
X3178Y-3545D03*
X3178Y-4045D03*
X3178Y-4545D03*
X3178Y-5045D03*
X3178Y-5545D03*
X3178Y-6045D03*
X3178Y-6545D03*
X6978Y-6541D03*
X6978Y-6041D03*
X6978Y-5541D03*
X6978Y-5041D03*
X6978Y-4541D03*
X6978Y-4041D03*
X6978Y-3541D03*
X6978Y-3041D03*
X6978Y-2541D03*
X3179Y-2533D03*
G54D11*
X14011Y-1102D03*
G54D12*
X15011Y-1102D03*
X16011Y-1102D03*
X17011Y-1102D03*
M02*
