G04 (created by PCBNEW (2013-may-18)-stable) date Сб 10 янв 2015 20:32:16*
%MOIN*%
G04 Gerber Fmt 3.4, Leading zero omitted, Abs format*
%FSLAX34Y34*%
G01*
G70*
G90*
G04 APERTURE LIST*
%ADD10C,0.00590551*%
%ADD11R,0.055X0.055*%
%ADD12C,0.055*%
%ADD13R,0.05X0.02*%
%ADD14R,0.025X0.05*%
%ADD15R,0.0472X0.0472*%
%ADD16R,0.06X0.08*%
%ADD17R,0.08X0.06*%
%ADD18R,0.0177X0.0787*%
%ADD19R,0.0787X0.0177*%
%ADD20C,0.035*%
%ADD21C,0.0472441*%
%ADD22C,0.019685*%
%ADD23C,0.01*%
G04 APERTURE END LIST*
G54D10*
G54D11*
X14011Y-10078D03*
G54D12*
X15011Y-10078D03*
X16011Y-10078D03*
X17011Y-10078D03*
G54D13*
X3178Y-12021D03*
X3178Y-12521D03*
X3178Y-13021D03*
X3178Y-13521D03*
X3178Y-14021D03*
X3178Y-14521D03*
X3178Y-15021D03*
X3178Y-15521D03*
X6978Y-15517D03*
X6978Y-15017D03*
X6978Y-14517D03*
X6978Y-14017D03*
X6978Y-13517D03*
X6978Y-13017D03*
X6978Y-12517D03*
X6978Y-12017D03*
X6978Y-11517D03*
X3179Y-11509D03*
G54D11*
X669Y-10161D03*
G54D12*
X669Y-11161D03*
X669Y-12161D03*
X669Y-13161D03*
X669Y-14161D03*
X669Y-15161D03*
X669Y-16161D03*
X669Y-17161D03*
G54D11*
X1692Y-17161D03*
G54D12*
X1692Y-16161D03*
X1692Y-15161D03*
X1692Y-14161D03*
X1692Y-13161D03*
X1692Y-12161D03*
X1692Y-11161D03*
X1692Y-10161D03*
G54D14*
X14013Y-15430D03*
X14513Y-15430D03*
X15013Y-15430D03*
X15513Y-15430D03*
X15513Y-13230D03*
X15013Y-13230D03*
X14513Y-13230D03*
X14013Y-13230D03*
G54D12*
X16850Y-13330D03*
X16850Y-15330D03*
X4157Y-10000D03*
X6157Y-10000D03*
G54D15*
X11042Y-16929D03*
X10216Y-16929D03*
G54D11*
X11893Y-10039D03*
G54D12*
X10893Y-10039D03*
X9893Y-10039D03*
X8893Y-10039D03*
G54D16*
X14113Y-17047D03*
X15413Y-17047D03*
X15531Y-12086D03*
X14231Y-12086D03*
G54D17*
X12913Y-17224D03*
X12913Y-15924D03*
G54D16*
X8484Y-16732D03*
X7184Y-16732D03*
X8405Y-11141D03*
X9705Y-11141D03*
G54D18*
X9379Y-12237D03*
X9694Y-12237D03*
X10009Y-12237D03*
X10324Y-12237D03*
X10639Y-12237D03*
X10954Y-12237D03*
X11269Y-12237D03*
X11584Y-12237D03*
X11582Y-16003D03*
X9372Y-16003D03*
X9692Y-16003D03*
X10012Y-16003D03*
X10322Y-16003D03*
X10642Y-16003D03*
X10952Y-16003D03*
X11272Y-16003D03*
G54D19*
X12372Y-13021D03*
X12372Y-13335D03*
X12372Y-13651D03*
X12372Y-13965D03*
X12372Y-14281D03*
X12372Y-14595D03*
X12372Y-14911D03*
X12372Y-15225D03*
X8592Y-13023D03*
X8592Y-13333D03*
X8592Y-13653D03*
X8592Y-13963D03*
X8592Y-14273D03*
X8592Y-14593D03*
X8592Y-14913D03*
X8592Y-15233D03*
G54D18*
X9379Y-3261D03*
X9694Y-3261D03*
X10009Y-3261D03*
X10324Y-3261D03*
X10639Y-3261D03*
X10954Y-3261D03*
X11269Y-3261D03*
X11584Y-3261D03*
X11582Y-7027D03*
X9372Y-7027D03*
X9692Y-7027D03*
X10012Y-7027D03*
X10322Y-7027D03*
X10642Y-7027D03*
X10952Y-7027D03*
X11272Y-7027D03*
G54D19*
X12372Y-4045D03*
X12372Y-4359D03*
X12372Y-4675D03*
X12372Y-4989D03*
X12372Y-5305D03*
X12372Y-5619D03*
X12372Y-5935D03*
X12372Y-6249D03*
X8592Y-4047D03*
X8592Y-4357D03*
X8592Y-4677D03*
X8592Y-4987D03*
X8592Y-5297D03*
X8592Y-5617D03*
X8592Y-5937D03*
X8592Y-6257D03*
G54D16*
X8405Y-2165D03*
X9705Y-2165D03*
X8484Y-7755D03*
X7184Y-7755D03*
G54D17*
X12913Y-8248D03*
X12913Y-6948D03*
G54D16*
X15531Y-3110D03*
X14231Y-3110D03*
X14113Y-8070D03*
X15413Y-8070D03*
G54D11*
X11893Y-1062D03*
G54D12*
X10893Y-1062D03*
X9893Y-1062D03*
X8893Y-1062D03*
G54D15*
X11042Y-7952D03*
X10216Y-7952D03*
G54D12*
X4157Y-1023D03*
X6157Y-1023D03*
X16850Y-4354D03*
X16850Y-6354D03*
G54D14*
X14013Y-6454D03*
X14513Y-6454D03*
X15013Y-6454D03*
X15513Y-6454D03*
X15513Y-4254D03*
X15013Y-4254D03*
X14513Y-4254D03*
X14013Y-4254D03*
G54D11*
X1692Y-8185D03*
G54D12*
X1692Y-7185D03*
X1692Y-6185D03*
X1692Y-5185D03*
X1692Y-4185D03*
X1692Y-3185D03*
X1692Y-2185D03*
X1692Y-1185D03*
G54D11*
X669Y-1185D03*
G54D12*
X669Y-2185D03*
X669Y-3185D03*
X669Y-4185D03*
X669Y-5185D03*
X669Y-6185D03*
X669Y-7185D03*
X669Y-8185D03*
G54D13*
X3178Y-3045D03*
X3178Y-3545D03*
X3178Y-4045D03*
X3178Y-4545D03*
X3178Y-5045D03*
X3178Y-5545D03*
X3178Y-6045D03*
X3178Y-6545D03*
X6978Y-6541D03*
X6978Y-6041D03*
X6978Y-5541D03*
X6978Y-5041D03*
X6978Y-4541D03*
X6978Y-4041D03*
X6978Y-3541D03*
X6978Y-3041D03*
X6978Y-2541D03*
X3179Y-2533D03*
G54D11*
X14011Y-1102D03*
G54D12*
X15011Y-1102D03*
X16011Y-1102D03*
X17011Y-1102D03*
G54D20*
X4157Y-10000D03*
X2795Y-9291D03*
X2992Y-9291D03*
X3188Y-9291D03*
X3448Y-9291D03*
X3448Y-314D03*
X3188Y-314D03*
X2992Y-314D03*
X2795Y-314D03*
X4157Y-1023D03*
X4212Y-9291D03*
X4724Y-9291D03*
X10393Y-11141D03*
X12637Y-10787D03*
X12637Y-1811D03*
X10393Y-2165D03*
X4724Y-314D03*
X4212Y-314D03*
X11377Y-11574D03*
X11377Y-2598D03*
X11889Y-12007D03*
X11889Y-3031D03*
X12519Y-12637D03*
X12519Y-3661D03*
X13622Y-14173D03*
X13169Y-13208D03*
X13169Y-4232D03*
X13622Y-5196D03*
X6023Y-17362D03*
X6023Y-8385D03*
G54D21*
X669Y-11161D02*
X669Y-10161D01*
X669Y-12161D02*
X669Y-11161D01*
X669Y-13161D02*
X669Y-12161D01*
X669Y-14161D02*
X669Y-13161D01*
X669Y-15161D02*
X669Y-14161D01*
X669Y-14803D02*
X669Y-15161D01*
X669Y-16161D02*
X669Y-14803D01*
X669Y-17161D02*
X669Y-16161D01*
G54D22*
X3188Y-9291D02*
X2992Y-9291D01*
G54D21*
X669Y-10161D02*
X669Y-9409D01*
X787Y-9291D02*
X2795Y-9291D01*
X669Y-9409D02*
X787Y-9291D01*
G54D22*
X4157Y-10000D02*
X3448Y-9291D01*
X4157Y-1023D02*
X3448Y-314D01*
G54D21*
X669Y-433D02*
X787Y-314D01*
X787Y-314D02*
X2795Y-314D01*
X669Y-1185D02*
X669Y-433D01*
G54D22*
X3188Y-314D02*
X2992Y-314D01*
G54D21*
X669Y-8185D02*
X669Y-7185D01*
X669Y-7185D02*
X669Y-5826D01*
X669Y-5826D02*
X669Y-6185D01*
X669Y-6185D02*
X669Y-5185D01*
X669Y-5185D02*
X669Y-4185D01*
X669Y-4185D02*
X669Y-3185D01*
X669Y-3185D02*
X669Y-2185D01*
X669Y-2185D02*
X669Y-1185D01*
G54D22*
X4212Y-9291D02*
X4724Y-9291D01*
X10009Y-11446D02*
X9705Y-11141D01*
X10009Y-12237D02*
X10009Y-11446D01*
X10393Y-11141D02*
X9705Y-11141D01*
X10639Y-11269D02*
X10511Y-11141D01*
X10511Y-11141D02*
X10393Y-11141D01*
X10639Y-12237D02*
X10639Y-11269D01*
X14513Y-12860D02*
X14231Y-12578D01*
X14231Y-12578D02*
X14231Y-12086D01*
X14513Y-13230D02*
X14513Y-12860D01*
X13937Y-12086D02*
X12637Y-10787D01*
X14231Y-12086D02*
X13937Y-12086D01*
X14231Y-3110D02*
X13937Y-3110D01*
X13937Y-3110D02*
X12637Y-1811D01*
X14513Y-4254D02*
X14513Y-3883D01*
X14231Y-3601D02*
X14231Y-3110D01*
X14513Y-3883D02*
X14231Y-3601D01*
X10639Y-3261D02*
X10639Y-2292D01*
X10511Y-2165D02*
X10393Y-2165D01*
X10639Y-2292D02*
X10511Y-2165D01*
X10393Y-2165D02*
X9705Y-2165D01*
X10009Y-3261D02*
X10009Y-2469D01*
X10009Y-2469D02*
X9705Y-2165D01*
X4212Y-314D02*
X4724Y-314D01*
X11269Y-11623D02*
X11318Y-11574D01*
X11318Y-11574D02*
X11377Y-11574D01*
X11269Y-12237D02*
X11269Y-11623D01*
X11269Y-3261D02*
X11269Y-2647D01*
X11318Y-2598D02*
X11377Y-2598D01*
X11269Y-2647D02*
X11318Y-2598D01*
X11659Y-12237D02*
X11889Y-12007D01*
X11584Y-12237D02*
X11659Y-12237D01*
X11584Y-3261D02*
X11659Y-3261D01*
X11659Y-3261D02*
X11889Y-3031D01*
X12372Y-12785D02*
X12519Y-12637D01*
X12372Y-13021D02*
X12372Y-12785D01*
X12372Y-4045D02*
X12372Y-3808D01*
X12372Y-3808D02*
X12519Y-3661D01*
X13169Y-13208D02*
X13042Y-13335D01*
X13042Y-13335D02*
X12372Y-13335D01*
X13622Y-14173D02*
X14094Y-14645D01*
X14094Y-14645D02*
X15236Y-14645D01*
X15236Y-14645D02*
X15513Y-14923D01*
X15513Y-15430D02*
X15513Y-14923D01*
X13169Y-12539D02*
X10893Y-10263D01*
X10893Y-10263D02*
X10893Y-10039D01*
X13169Y-13208D02*
X13169Y-12539D01*
X13169Y-4232D02*
X13169Y-3562D01*
X10893Y-1287D02*
X10893Y-1062D01*
X13169Y-3562D02*
X10893Y-1287D01*
X15513Y-6454D02*
X15513Y-5946D01*
X15236Y-5669D02*
X15513Y-5946D01*
X14094Y-5669D02*
X15236Y-5669D01*
X13622Y-5196D02*
X14094Y-5669D01*
X13042Y-4359D02*
X12372Y-4359D01*
X13169Y-4232D02*
X13042Y-4359D01*
X11893Y-10712D02*
X12716Y-11535D01*
X12716Y-11535D02*
X13425Y-12244D01*
X13425Y-12244D02*
X13425Y-12322D01*
X13425Y-12322D02*
X13582Y-12480D01*
X13582Y-12480D02*
X13582Y-13503D01*
X13582Y-13503D02*
X13434Y-13651D01*
X13070Y-13651D02*
X12372Y-13651D01*
X13434Y-13651D02*
X13070Y-13651D01*
X11893Y-10039D02*
X11893Y-10712D01*
X14013Y-15312D02*
X13070Y-14370D01*
X13070Y-14370D02*
X13070Y-13651D01*
X14013Y-15430D02*
X14013Y-15312D01*
X14013Y-6454D02*
X14013Y-6336D01*
X13070Y-5393D02*
X13070Y-4675D01*
X14013Y-6336D02*
X13070Y-5393D01*
X11893Y-1062D02*
X11893Y-1736D01*
X13434Y-4675D02*
X13070Y-4675D01*
X13070Y-4675D02*
X12372Y-4675D01*
X13582Y-4527D02*
X13434Y-4675D01*
X13582Y-3503D02*
X13582Y-4527D01*
X13425Y-3346D02*
X13582Y-3503D01*
X13425Y-3267D02*
X13425Y-3346D01*
X12716Y-2559D02*
X13425Y-3267D01*
X11893Y-1736D02*
X12716Y-2559D01*
X15013Y-15970D02*
X14881Y-16102D01*
X14881Y-16102D02*
X14291Y-16102D01*
X15013Y-15430D02*
X15013Y-15970D01*
X14513Y-15879D02*
X14291Y-16102D01*
X14513Y-15430D02*
X14513Y-15879D01*
X12913Y-15412D02*
X12913Y-15924D01*
X13099Y-15225D02*
X12913Y-15412D01*
X12372Y-15225D02*
X13099Y-15225D01*
X13090Y-16102D02*
X12913Y-15924D01*
X14291Y-16102D02*
X13090Y-16102D01*
X14291Y-7125D02*
X13090Y-7125D01*
X13090Y-7125D02*
X12913Y-6948D01*
X12372Y-6249D02*
X13099Y-6249D01*
X13099Y-6249D02*
X12913Y-6435D01*
X12913Y-6435D02*
X12913Y-6948D01*
X14513Y-6454D02*
X14513Y-6903D01*
X14513Y-6903D02*
X14291Y-7125D01*
X15013Y-6454D02*
X15013Y-6994D01*
X14881Y-7125D02*
X14291Y-7125D01*
X15013Y-6994D02*
X14881Y-7125D01*
X8260Y-13023D02*
X7253Y-12017D01*
X7253Y-12017D02*
X6978Y-12017D01*
X8592Y-13023D02*
X8260Y-13023D01*
X8592Y-4047D02*
X8260Y-4047D01*
X7253Y-3041D02*
X6978Y-3041D01*
X8260Y-4047D02*
X7253Y-3041D01*
X7320Y-12517D02*
X6978Y-12517D01*
X8084Y-13333D02*
X7268Y-12517D01*
X7268Y-12517D02*
X6978Y-12517D01*
X8592Y-13333D02*
X8084Y-13333D01*
X8592Y-4357D02*
X8084Y-4357D01*
X7268Y-3541D02*
X6978Y-3541D01*
X8084Y-4357D02*
X7268Y-3541D01*
X7320Y-3541D02*
X6978Y-3541D01*
X7984Y-13653D02*
X7348Y-13017D01*
X7348Y-13017D02*
X6978Y-13017D01*
X8592Y-13653D02*
X7984Y-13653D01*
X8592Y-4677D02*
X7984Y-4677D01*
X7348Y-4041D02*
X6978Y-4041D01*
X7984Y-4677D02*
X7348Y-4041D01*
X7205Y-13517D02*
X6978Y-13517D01*
X7861Y-13963D02*
X7415Y-13517D01*
X7415Y-13517D02*
X6978Y-13517D01*
X8592Y-13963D02*
X7861Y-13963D01*
X8592Y-4987D02*
X7861Y-4987D01*
X7415Y-4541D02*
X6978Y-4541D01*
X7861Y-4987D02*
X7415Y-4541D01*
X7205Y-4541D02*
X6978Y-4541D01*
X7285Y-14017D02*
X6978Y-14017D01*
X7738Y-14273D02*
X7482Y-14017D01*
X7482Y-14017D02*
X6978Y-14017D01*
X8592Y-14273D02*
X7738Y-14273D01*
X8592Y-5297D02*
X7738Y-5297D01*
X7482Y-5041D02*
X6978Y-5041D01*
X7738Y-5297D02*
X7482Y-5041D01*
X7285Y-5041D02*
X6978Y-5041D01*
X7546Y-14593D02*
X7470Y-14517D01*
X7470Y-14517D02*
X6978Y-14517D01*
X8592Y-14593D02*
X7546Y-14593D01*
X8592Y-5617D02*
X7546Y-5617D01*
X7470Y-5541D02*
X6978Y-5541D01*
X7546Y-5617D02*
X7470Y-5541D01*
X8117Y-14913D02*
X8013Y-15017D01*
X8013Y-15017D02*
X6978Y-15017D01*
X8592Y-14913D02*
X8117Y-14913D01*
X8592Y-5937D02*
X8117Y-5937D01*
X8013Y-6041D02*
X6978Y-6041D01*
X8117Y-5937D02*
X8013Y-6041D01*
X8309Y-15233D02*
X8025Y-15517D01*
X8025Y-15517D02*
X6978Y-15517D01*
X8592Y-15233D02*
X8309Y-15233D01*
X8592Y-6257D02*
X8309Y-6257D01*
X8025Y-6541D02*
X6978Y-6541D01*
X8309Y-6257D02*
X8025Y-6541D01*
G54D23*
X10461Y-13965D02*
X9527Y-13031D01*
X9527Y-13031D02*
X9370Y-13031D01*
X9370Y-13031D02*
X8149Y-11811D01*
X8149Y-11811D02*
X8149Y-11259D01*
X12372Y-13965D02*
X10461Y-13965D01*
G54D22*
X8700Y-10039D02*
X8405Y-10335D01*
X8405Y-10335D02*
X8405Y-11141D01*
X8893Y-10039D02*
X8700Y-10039D01*
X8893Y-1062D02*
X8700Y-1062D01*
X8405Y-1358D02*
X8405Y-2165D01*
X8700Y-1062D02*
X8405Y-1358D01*
G54D23*
X12372Y-4989D02*
X10461Y-4989D01*
X8149Y-2834D02*
X8149Y-2283D01*
X9370Y-4055D02*
X8149Y-2834D01*
X9527Y-4055D02*
X9370Y-4055D01*
X10461Y-4989D02*
X9527Y-4055D01*
G54D22*
X6157Y-11039D02*
X6635Y-11517D01*
X6635Y-11517D02*
X6978Y-11517D01*
X6157Y-10000D02*
X6157Y-11039D01*
X13936Y-17224D02*
X14113Y-17047D01*
X12913Y-17224D02*
X13936Y-17224D01*
X6023Y-17362D02*
X6653Y-16732D01*
X6653Y-16732D02*
X7184Y-16732D01*
X7184Y-16869D02*
X7795Y-17480D01*
X10642Y-17480D02*
X11929Y-17480D01*
X7795Y-17480D02*
X10642Y-17480D01*
X11929Y-17480D02*
X12184Y-17224D01*
X12184Y-17224D02*
X12913Y-17224D01*
X7184Y-16732D02*
X7184Y-16869D01*
G54D23*
X10642Y-16003D02*
X10642Y-17480D01*
G54D22*
X10954Y-12864D02*
X10954Y-12237D01*
X10669Y-13149D02*
X10954Y-12864D01*
X10452Y-13149D02*
X10669Y-13149D01*
X10324Y-13022D02*
X10452Y-13149D01*
X10324Y-12237D02*
X10324Y-13022D01*
X7716Y-10000D02*
X8307Y-9409D01*
X8307Y-9409D02*
X9263Y-9409D01*
X9263Y-9409D02*
X9893Y-10039D01*
X6157Y-10000D02*
X7716Y-10000D01*
X9921Y-10039D02*
X10748Y-10866D01*
X10748Y-10866D02*
X10787Y-10866D01*
X10787Y-10866D02*
X10954Y-11033D01*
X10954Y-11033D02*
X10954Y-12237D01*
X9893Y-10039D02*
X9921Y-10039D01*
X14173Y-17047D02*
X14685Y-16535D01*
X14685Y-16535D02*
X14763Y-16535D01*
X14763Y-16535D02*
X14881Y-16417D01*
X14881Y-16417D02*
X14986Y-16417D01*
X14986Y-16417D02*
X15262Y-16141D01*
X15262Y-16141D02*
X15787Y-16141D01*
X15787Y-16141D02*
X16062Y-15866D01*
X16062Y-15866D02*
X16062Y-14527D01*
X16062Y-14527D02*
X15513Y-13978D01*
X15513Y-13978D02*
X15513Y-13230D01*
X14113Y-17047D02*
X14173Y-17047D01*
X16183Y-13978D02*
X16185Y-13976D01*
X16185Y-13976D02*
X17322Y-13976D01*
X17322Y-13976D02*
X17480Y-13818D01*
X17480Y-13818D02*
X17480Y-11732D01*
X17480Y-11732D02*
X17011Y-11263D01*
X17011Y-11263D02*
X17011Y-10078D01*
X15513Y-13978D02*
X16183Y-13978D01*
X15513Y-5001D02*
X16183Y-5001D01*
X17011Y-2287D02*
X17011Y-1102D01*
X17480Y-2755D02*
X17011Y-2287D01*
X17480Y-4842D02*
X17480Y-2755D01*
X17322Y-5000D02*
X17480Y-4842D01*
X16185Y-5000D02*
X17322Y-5000D01*
X16183Y-5001D02*
X16185Y-5000D01*
X14113Y-8070D02*
X14173Y-8070D01*
X15513Y-5001D02*
X15513Y-4254D01*
X16062Y-5551D02*
X15513Y-5001D01*
X16062Y-6889D02*
X16062Y-5551D01*
X15787Y-7165D02*
X16062Y-6889D01*
X15262Y-7165D02*
X15787Y-7165D01*
X14986Y-7440D02*
X15262Y-7165D01*
X14881Y-7440D02*
X14986Y-7440D01*
X14763Y-7559D02*
X14881Y-7440D01*
X14685Y-7559D02*
X14763Y-7559D01*
X14173Y-8070D02*
X14685Y-7559D01*
X9893Y-1062D02*
X9921Y-1062D01*
X10954Y-2056D02*
X10954Y-3261D01*
X10787Y-1889D02*
X10954Y-2056D01*
X10748Y-1889D02*
X10787Y-1889D01*
X9921Y-1062D02*
X10748Y-1889D01*
X6157Y-1023D02*
X7716Y-1023D01*
X9263Y-433D02*
X9893Y-1062D01*
X8307Y-433D02*
X9263Y-433D01*
X7716Y-1023D02*
X8307Y-433D01*
X10324Y-3261D02*
X10324Y-4045D01*
X10324Y-4045D02*
X10452Y-4173D01*
X10452Y-4173D02*
X10669Y-4173D01*
X10669Y-4173D02*
X10954Y-3888D01*
X10954Y-3888D02*
X10954Y-3261D01*
G54D23*
X10642Y-7027D02*
X10642Y-8503D01*
G54D22*
X7184Y-7755D02*
X7184Y-7893D01*
X12184Y-8248D02*
X12913Y-8248D01*
X11929Y-8503D02*
X12184Y-8248D01*
X7795Y-8503D02*
X10642Y-8503D01*
X10642Y-8503D02*
X11929Y-8503D01*
X7184Y-7893D02*
X7795Y-8503D01*
X6023Y-8385D02*
X6653Y-7755D01*
X6653Y-7755D02*
X7184Y-7755D01*
X12913Y-8248D02*
X13936Y-8248D01*
X13936Y-8248D02*
X14113Y-8070D01*
X6157Y-1023D02*
X6157Y-2062D01*
X6635Y-2541D02*
X6978Y-2541D01*
X6157Y-2062D02*
X6635Y-2541D01*
X2852Y-15021D02*
X2244Y-15629D01*
X2244Y-15629D02*
X2244Y-16023D01*
X2244Y-16023D02*
X2106Y-16161D01*
X2106Y-16161D02*
X1692Y-16161D01*
X3178Y-15021D02*
X2852Y-15021D01*
X3178Y-6045D02*
X2852Y-6045D01*
X2106Y-7185D02*
X1692Y-7185D01*
X2244Y-7047D02*
X2106Y-7185D01*
X2244Y-6653D02*
X2244Y-7047D01*
X2852Y-6045D02*
X2244Y-6653D01*
X2683Y-14521D02*
X2043Y-15161D01*
X2043Y-15161D02*
X1692Y-15161D01*
X3178Y-14521D02*
X2683Y-14521D01*
X3178Y-5545D02*
X2683Y-5545D01*
X2043Y-6185D02*
X1692Y-6185D01*
X2683Y-5545D02*
X2043Y-6185D01*
X2513Y-14021D02*
X2374Y-14161D01*
X2374Y-14161D02*
X1692Y-14161D01*
X3178Y-14021D02*
X2513Y-14021D01*
X3178Y-5045D02*
X2513Y-5045D01*
X2374Y-5185D02*
X1692Y-5185D01*
X2513Y-5045D02*
X2374Y-5185D01*
X2915Y-12521D02*
X2559Y-12165D01*
X2559Y-12165D02*
X2559Y-11259D01*
X2559Y-11259D02*
X2460Y-11161D01*
X2460Y-11161D02*
X1692Y-11161D01*
X3178Y-12521D02*
X2915Y-12521D01*
X3178Y-3545D02*
X2915Y-3545D01*
X2460Y-2185D02*
X1692Y-2185D01*
X2559Y-2283D02*
X2460Y-2185D01*
X2559Y-3188D02*
X2559Y-2283D01*
X2915Y-3545D02*
X2559Y-3188D01*
X2785Y-13021D02*
X1925Y-12161D01*
X1925Y-12161D02*
X1692Y-12161D01*
X3178Y-13021D02*
X2785Y-13021D01*
X3178Y-4045D02*
X2785Y-4045D01*
X1925Y-3185D02*
X1692Y-3185D01*
X2785Y-4045D02*
X1925Y-3185D01*
X2576Y-13521D02*
X2216Y-13161D01*
X2216Y-13161D02*
X1692Y-13161D01*
X3178Y-13521D02*
X2576Y-13521D01*
X3178Y-4545D02*
X2576Y-4545D01*
X2216Y-4185D02*
X1692Y-4185D01*
X2576Y-4545D02*
X2216Y-4185D01*
X3805Y-12021D02*
X3897Y-11929D01*
X3897Y-11929D02*
X3897Y-10905D01*
X3897Y-10905D02*
X3153Y-10161D01*
X3153Y-10161D02*
X1692Y-10161D01*
X3178Y-12021D02*
X3805Y-12021D01*
X3178Y-3045D02*
X3805Y-3045D01*
X3153Y-1185D02*
X1692Y-1185D01*
X3897Y-1929D02*
X3153Y-1185D01*
X3897Y-2952D02*
X3897Y-1929D01*
X3805Y-3045D02*
X3897Y-2952D01*
X16850Y-15866D02*
X15669Y-17047D01*
X15669Y-17047D02*
X15413Y-17047D01*
X16850Y-15330D02*
X16850Y-15866D01*
X16850Y-6354D02*
X16850Y-6889D01*
X15669Y-8070D02*
X15413Y-8070D01*
X16850Y-6889D02*
X15669Y-8070D01*
X15013Y-12820D02*
X15531Y-12302D01*
X15531Y-12302D02*
X15531Y-12086D01*
X15013Y-12755D02*
X15013Y-12820D01*
X15013Y-13230D02*
X15013Y-12755D01*
X15708Y-12755D02*
X15748Y-12795D01*
X15748Y-12795D02*
X16314Y-12795D01*
X16314Y-12795D02*
X16850Y-13330D01*
X15013Y-12755D02*
X15708Y-12755D01*
X15013Y-3779D02*
X15708Y-3779D01*
X16314Y-3818D02*
X16850Y-4354D01*
X15748Y-3818D02*
X16314Y-3818D01*
X15708Y-3779D02*
X15748Y-3818D01*
X15013Y-4254D02*
X15013Y-3779D01*
X15013Y-3779D02*
X15013Y-3844D01*
X15531Y-3326D02*
X15531Y-3110D01*
X15013Y-3844D02*
X15531Y-3326D01*
X11042Y-16831D02*
X11272Y-16601D01*
X11272Y-16601D02*
X11272Y-16003D01*
X11042Y-16929D02*
X11042Y-16831D01*
X11042Y-7952D02*
X11042Y-7854D01*
X11272Y-7625D02*
X11272Y-7027D01*
X11042Y-7854D02*
X11272Y-7625D01*
X8937Y-16929D02*
X8740Y-16732D01*
X8740Y-16732D02*
X8484Y-16732D01*
X10216Y-16929D02*
X8937Y-16929D01*
X10216Y-7952D02*
X8937Y-7952D01*
X8740Y-7755D02*
X8484Y-7755D01*
X8937Y-7952D02*
X8740Y-7755D01*
X3100Y-15521D02*
X2677Y-15944D01*
X2677Y-15944D02*
X2677Y-16771D01*
X2677Y-16771D02*
X2287Y-17161D01*
X2287Y-17161D02*
X1692Y-17161D01*
X3178Y-15521D02*
X3100Y-15521D01*
X3178Y-6545D02*
X3100Y-6545D01*
X2287Y-8185D02*
X1692Y-8185D01*
X2677Y-7795D02*
X2287Y-8185D01*
X2677Y-6968D02*
X2677Y-7795D01*
X3100Y-6545D02*
X2677Y-6968D01*
M02*
