M48
;DRILL file {Pcbnew (2013-may-18)-stable} date Сб 10 янв 2015 20:32:17
;FORMAT={-:-/ absolute / metric / decimal}
FMAT,2
METRIC,TZ
T1C0.635
T2C0.813
%
G90
G05
M71
T1
X7.1Y-0.8
X7.1Y-23.6
X7.6Y-0.8
X7.6Y-23.6
X8.1Y-0.8
X8.1Y-23.6
X8.76Y-0.8
X8.76Y-23.6
X10.56Y-2.6
X10.56Y-25.4
X10.7Y-0.8
X10.7Y-23.6
X12.Y-0.8
X12.Y-23.6
X15.3Y-21.3
X15.3Y-44.1
X26.4Y-5.5
X26.4Y-28.3
X28.9Y-6.6
X28.9Y-29.4
X30.2Y-7.7
X30.2Y-30.5
X31.8Y-9.3
X31.8Y-32.1
X32.1Y-4.6
X32.1Y-27.4
X33.45Y-10.75
X33.45Y-33.55
X34.6Y-13.2
X34.6Y-36.
T2
X1.7Y-3.01
X1.7Y-5.55
X1.7Y-8.09
X1.7Y-10.63
X1.7Y-13.17
X1.7Y-15.71
X1.7Y-18.25
X1.7Y-20.79
X1.7Y-25.81
X1.7Y-28.35
X1.7Y-30.89
X1.7Y-33.43
X1.7Y-35.97
X1.7Y-38.51
X1.7Y-41.05
X1.7Y-43.59
X4.3Y-3.01
X4.3Y-5.55
X4.3Y-8.09
X4.3Y-10.63
X4.3Y-13.17
X4.3Y-15.71
X4.3Y-18.25
X4.3Y-20.79
X4.3Y-25.81
X4.3Y-28.35
X4.3Y-30.89
X4.3Y-33.43
X4.3Y-35.97
X4.3Y-38.51
X4.3Y-41.05
X4.3Y-43.59
X10.56Y-2.6
X10.56Y-25.4
X15.64Y-2.6
X15.64Y-25.4
X22.59Y-2.7
X22.59Y-25.5
X25.13Y-2.7
X25.13Y-25.5
X27.67Y-2.7
X27.67Y-25.5
X30.21Y-2.7
X30.21Y-25.5
X35.59Y-2.8
X35.59Y-25.6
X38.13Y-2.8
X38.13Y-25.6
X40.67Y-2.8
X40.67Y-25.6
X42.8Y-11.06
X42.8Y-16.14
X42.8Y-33.86
X42.8Y-38.94
X43.21Y-2.8
X43.21Y-25.6
T0
M30
